<svg width="46" height="46" viewBox="0 0 46 46" fill="none" xmlns="http://www.w3.org/2000/svg">
<path d="M34.0957 12.0301C33.6734 12.2278 33.2961 12.6051 33.1613 12.9645C33.0266 13.3239 33.0355 14.0606 33.1883 14.402C33.2602 14.5637 34.7516 16.127 36.5574 17.9239L39.8008 21.1583L20.5113 21.2032L1.21289 21.2481L0.871484 21.4637C0.682813 21.5805 0.422266 21.8411 0.2875 22.0387C0.0808594 22.3442 0.0449219 22.5059 0.0449219 23.0001C0.0449219 23.4942 0.0808594 23.6559 0.2875 23.9614C0.422266 24.159 0.682813 24.4196 0.871484 24.5364L1.21289 24.752L20.5113 24.7969L39.8008 24.8419L36.5574 28.0762C34.7516 29.8731 33.2602 31.4364 33.1883 31.5981C33.0355 31.9395 33.0266 32.6762 33.1613 33.0356C33.4848 33.9071 34.6617 34.3743 35.5063 33.979C35.8926 33.7993 45.425 24.4376 45.7484 23.9165C46.0539 23.4223 46.0449 22.5329 45.7215 22.0477C45.3441 21.4817 35.8926 12.2008 35.5063 12.0212C35.075 11.8145 34.5449 11.8235 34.0957 12.0301Z" fill="white"/>
</svg>
