<svg width="46" height="24" viewBox="0 0 46 24" fill="none" xmlns="http://www.w3.org/2000/svg">
<path d="M11.9043 22.9699C12.3266 22.7723 12.7039 22.3949 12.8387 22.0355C12.9734 21.6762 12.9644 20.9395 12.8117 20.598C12.7398 20.4363 11.2484 18.873 9.44257 17.0762L6.19921 13.8418L25.4887 13.7969L44.7871 13.752L45.1285 13.5363C45.3172 13.4195 45.5777 13.159 45.7125 12.9613C45.9191 12.6559 45.9551 12.4941 45.9551 12C45.9551 11.5059 45.9191 11.3441 45.7125 11.0387C45.5777 10.841 45.3172 10.5805 45.1285 10.4637L44.7871 10.2481L25.4887 10.2031L6.19921 10.1582L9.44257 6.92383C11.2484 5.12695 12.7398 3.56367 12.8117 3.40195C12.9645 3.06055 12.9734 2.32383 12.8387 1.96445C12.5152 1.09297 11.3383 0.625783 10.4937 1.0211C10.1074 1.20078 0.574995 10.5625 0.251558 11.0836C-0.053911 11.5777 -0.0449267 12.4672 0.278511 12.9523C0.655855 13.5184 10.1074 22.7992 10.4937 22.9789C10.925 23.1855 11.4551 23.1766 11.9043 22.9699Z" fill="white"/>
</svg>
