<svg width="13" height="13" viewBox="0 0 13 13" fill="none" xmlns="http://www.w3.org/2000/svg">
<path d="M2.74377 0.0266132C2.3104 0.192015 1.50325 0.989194 0.75298 1.98703C0.455038 2.38561 0.222102 2.74353 0.100217 2.99841L0 3.19906L0.0325027 3.47293C0.28169 5.62856 2.07476 8.44581 4.47996 10.4577C6.17823 11.8759 8.00922 12.7951 9.51788 12.9794C9.76707 13.012 9.78061 13.0093 9.93771 12.9469C10.5769 12.6839 12.0883 11.4691 12.6598 10.756C13.0228 10.3032 13.0769 10.0836 12.909 9.74191C12.7952 9.50872 12.6734 9.40297 12.0287 8.96913C10.7205 8.08518 9.78332 7.60796 9.3635 7.60796C9.05201 7.60796 8.87595 7.73811 8.36674 8.33735C8.18798 8.54614 8.02547 8.71967 8.00651 8.71967C7.94692 8.71967 7.50813 8.54071 7.2454 8.41056C6.31636 7.94147 5.5363 7.25275 4.96208 6.38778C4.74811 6.06783 4.44475 5.46859 4.34724 5.17846L4.28224 4.98594L4.38787 4.89104C4.44475 4.83952 4.62081 4.68768 4.7779 4.5521C5.26273 4.13995 5.37649 3.97997 5.39545 3.68171C5.40358 3.55698 5.39275 3.46479 5.3467 3.32108C5.26273 3.06349 4.97021 2.46696 4.69664 2.00872C4.38787 1.48811 3.72156 0.484857 3.56988 0.316744C3.35049 0.0727091 2.97129 -0.0601549 2.74377 0.0266132Z" fill="#FF3838"/>
</svg>
