<svg width="221" height="45" viewBox="0 0 221 45" fill="none" xmlns="http://www.w3.org/2000/svg">
<path d="M60.087 30.8856L56.135 38.2306C55.7883 38.8806 55.3723 39.3703 54.887 39.6996C54.4103 40.0203 53.8903 40.1806 53.327 40.1806C52.8763 40.1806 52.43 40.0853 51.988 39.8946L52.404 38.5686C52.7593 38.6813 53.054 38.7376 53.288 38.7376C53.834 38.7376 54.2847 38.4559 54.64 37.8926L54.783 37.6716L51.156 30.8856H52.963L55.654 36.2286L58.423 30.8856H60.087ZM68.1602 38.6076V41.5326H66.6392V39.9856H61.2832V41.5326H59.7752V38.6076H60.1002C60.5422 38.5903 60.8412 38.3086 60.9972 37.7626C61.1619 37.2079 61.2702 36.4279 61.3222 35.4226L61.4132 33.0436H67.1332V38.6076H68.1602ZM62.8042 35.5396C62.7695 36.3369 62.7045 36.9869 62.6092 37.4896C62.5139 37.9923 62.3405 38.3649 62.0892 38.6076H65.5082V34.4216H62.8432L62.8042 35.5396ZM72.7055 40.0766C72.0035 40.0766 71.3709 39.9249 70.8075 39.6216C70.2442 39.3183 69.8022 38.8979 69.4815 38.3606C69.1695 37.8146 69.0135 37.1993 69.0135 36.5146C69.0135 35.8299 69.1695 35.2189 69.4815 34.6816C69.8022 34.1443 70.2442 33.7239 70.8075 33.4206C71.3709 33.1173 72.0035 32.9656 72.7055 32.9656C73.4162 32.9656 74.0532 33.1173 74.6165 33.4206C75.1799 33.7239 75.6175 34.1443 75.9295 34.6816C76.2502 35.2189 76.4105 35.8299 76.4105 36.5146C76.4105 37.1993 76.2502 37.8146 75.9295 38.3606C75.6175 38.8979 75.1799 39.3183 74.6165 39.6216C74.0532 39.9249 73.4162 40.0766 72.7055 40.0766ZM72.7055 38.6856C73.3035 38.6856 73.7975 38.4863 74.1875 38.0876C74.5775 37.6889 74.7725 37.1646 74.7725 36.5146C74.7725 35.8646 74.5775 35.3403 74.1875 34.9416C73.7975 34.5429 73.3035 34.3436 72.7055 34.3436C72.1075 34.3436 71.6135 34.5429 71.2235 34.9416C70.8422 35.3403 70.6515 35.8646 70.6515 36.5146C70.6515 37.1646 70.8422 37.6889 71.2235 38.0876C71.6135 38.4863 72.1075 38.6856 72.7055 38.6856ZM81.1748 40.0766C80.4555 40.0766 79.8098 39.9249 79.2378 39.6216C78.6658 39.3183 78.2195 38.8979 77.8988 38.3606C77.5782 37.8146 77.4178 37.1993 77.4178 36.5146C77.4178 35.8299 77.5782 35.2189 77.8988 34.6816C78.2195 34.1443 78.6615 33.7239 79.2248 33.4206C79.7968 33.1173 80.4468 32.9656 81.1748 32.9656C81.8595 32.9656 82.4575 33.1043 82.9688 33.3816C83.4888 33.6589 83.8788 34.0576 84.1388 34.5776L82.8908 35.3056C82.6915 34.9849 82.4402 34.7466 82.1368 34.5906C81.8422 34.4259 81.5172 34.3436 81.1618 34.3436C80.5552 34.3436 80.0525 34.5429 79.6538 34.9416C79.2552 35.3316 79.0558 35.8559 79.0558 36.5146C79.0558 37.1733 79.2508 37.7019 79.6408 38.1006C80.0395 38.4906 80.5465 38.6856 81.1618 38.6856C81.5172 38.6856 81.8422 38.6076 82.1368 38.4516C82.4402 38.2869 82.6915 38.0443 82.8908 37.7236L84.1388 38.4516C83.8702 38.9716 83.4758 39.3746 82.9558 39.6606C82.4445 39.9379 81.8508 40.0766 81.1748 40.0766ZM91.0051 34.4216H88.5741V39.9856H86.9491V34.4216H84.5051V33.0436H91.0051V34.4216ZM94.9731 40.0766C94.2711 40.0766 93.6384 39.9249 93.0751 39.6216C92.5118 39.3183 92.0698 38.8979 91.7491 38.3606C91.4371 37.8146 91.2811 37.1993 91.2811 36.5146C91.2811 35.8299 91.4371 35.2189 91.7491 34.6816C92.0698 34.1443 92.5118 33.7239 93.0751 33.4206C93.6384 33.1173 94.2711 32.9656 94.9731 32.9656C95.6838 32.9656 96.3208 33.1173 96.8841 33.4206C97.4474 33.7239 97.8851 34.1443 98.1971 34.6816C98.5178 35.2189 98.6781 35.8299 98.6781 36.5146C98.6781 37.1993 98.5178 37.8146 98.1971 38.3606C97.8851 38.8979 97.4474 39.3183 96.8841 39.6216C96.3208 39.9249 95.6838 40.0766 94.9731 40.0766ZM94.9731 38.6856C95.5711 38.6856 96.0651 38.4863 96.4551 38.0876C96.8451 37.6889 97.0401 37.1646 97.0401 36.5146C97.0401 35.8646 96.8451 35.3403 96.4551 34.9416C96.0651 34.5429 95.5711 34.3436 94.9731 34.3436C94.3751 34.3436 93.8811 34.5429 93.4911 34.9416C93.1098 35.3403 92.9191 35.8646 92.9191 36.5146C92.9191 37.1646 93.1098 37.6889 93.4911 38.0876C93.8811 38.4863 94.3751 38.6856 94.9731 38.6856ZM105.314 36.3716C106.172 36.6316 106.601 37.1863 106.601 38.0356C106.601 38.6596 106.367 39.1406 105.899 39.4786C105.431 39.8166 104.738 39.9856 103.819 39.9856H100.283V33.0436H103.676C104.526 33.0436 105.189 33.1996 105.665 33.5116C106.142 33.8236 106.38 34.2656 106.38 34.8376C106.38 35.1929 106.285 35.5006 106.094 35.7606C105.912 36.0206 105.652 36.2243 105.314 36.3716ZM101.83 35.9426H103.533C104.374 35.9426 104.794 35.6523 104.794 35.0716C104.794 34.5083 104.374 34.2266 103.533 34.2266H101.83V35.9426ZM103.689 38.8026C104.582 38.8026 105.028 38.5123 105.028 37.9316C105.028 37.6283 104.924 37.4029 104.716 37.2556C104.508 37.0996 104.183 37.0216 103.741 37.0216H101.83V38.8026H103.689ZM114.832 36.5536C114.832 36.6663 114.824 36.8266 114.806 37.0346H109.359C109.455 37.5459 109.702 37.9533 110.1 38.2566C110.508 38.5513 111.01 38.6986 111.608 38.6986C112.371 38.6986 112.999 38.4473 113.493 37.9446L114.364 38.9456C114.052 39.3183 113.658 39.5999 113.181 39.7906C112.705 39.9813 112.167 40.0766 111.569 40.0766C110.807 40.0766 110.135 39.9249 109.554 39.6216C108.974 39.3183 108.523 38.8979 108.202 38.3606C107.89 37.8146 107.734 37.1993 107.734 36.5146C107.734 35.8386 107.886 35.2319 108.189 34.6946C108.501 34.1486 108.93 33.7239 109.476 33.4206C110.022 33.1173 110.638 32.9656 111.322 32.9656C111.998 32.9656 112.601 33.1173 113.129 33.4206C113.667 33.7153 114.083 34.1356 114.377 34.6816C114.681 35.2189 114.832 35.8429 114.832 36.5536ZM111.322 34.2656C110.802 34.2656 110.36 34.4216 109.996 34.7336C109.641 35.0369 109.424 35.4443 109.346 35.9556H113.285C113.216 35.4529 113.004 35.0456 112.648 34.7336C112.293 34.4216 111.851 34.2656 111.322 34.2656ZM120.458 32.9656C121.134 32.9656 121.736 33.1129 122.265 33.4076C122.802 33.7023 123.222 34.1183 123.526 34.6556C123.829 35.1929 123.981 35.8126 123.981 36.5146C123.981 37.2166 123.829 37.8406 123.526 38.3866C123.222 38.9239 122.802 39.3399 122.265 39.6346C121.736 39.9293 121.134 40.0766 120.458 40.0766C119.522 40.0766 118.781 39.7646 118.235 39.1406V42.5076H116.61V33.0436H118.157V33.9536C118.425 33.6243 118.755 33.3773 119.145 33.2126C119.543 33.0479 119.981 32.9656 120.458 32.9656ZM120.276 38.6856C120.874 38.6856 121.363 38.4863 121.745 38.0876C122.135 37.6889 122.33 37.1646 122.33 36.5146C122.33 35.8646 122.135 35.3403 121.745 34.9416C121.363 34.5429 120.874 34.3436 120.276 34.3436C119.886 34.3436 119.535 34.4346 119.223 34.6166C118.911 34.7899 118.664 35.0413 118.482 35.3706C118.3 35.6999 118.209 36.0813 118.209 36.5146C118.209 36.9479 118.3 37.3293 118.482 37.6586C118.664 37.9879 118.911 38.2436 119.223 38.4256C119.535 38.5989 119.886 38.6856 120.276 38.6856ZM131.232 33.0436V39.9856H129.776V37.8926H127.943L126.526 39.9856H124.784L126.422 37.6716C125.92 37.4983 125.534 37.2339 125.265 36.8786C125.005 36.5146 124.875 36.0683 124.875 35.5396C124.875 34.7423 125.157 34.1269 125.72 33.6936C126.284 33.2603 127.059 33.0436 128.047 33.0436H131.232ZM128.099 34.4086C127.051 34.4086 126.526 34.8029 126.526 35.5916C126.526 36.3716 127.033 36.7616 128.047 36.7616H129.776V34.4086H128.099ZM139.762 32.9656C140.456 32.9656 141.075 33.1173 141.621 33.4206C142.167 33.7153 142.596 34.1356 142.908 34.6816C143.22 35.2189 143.376 35.8299 143.376 36.5146C143.376 37.1993 143.22 37.8146 142.908 38.3606C142.596 38.8979 142.167 39.3183 141.621 39.6216C141.075 39.9249 140.456 40.0766 139.762 40.0766C139.156 40.0766 138.601 39.9596 138.098 39.7256C137.596 39.4829 137.18 39.1449 136.85 38.7116C136.521 38.2696 136.309 37.7669 136.213 37.2036H135.043V39.9856H133.418V33.0436H135.043V35.7346H136.239C136.343 35.1886 136.56 34.7076 136.889 34.2916C137.219 33.8669 137.63 33.5419 138.124 33.3166C138.618 33.0826 139.164 32.9656 139.762 32.9656ZM139.762 38.6986C140.144 38.6986 140.486 38.6119 140.789 38.4386C141.093 38.2566 141.331 38.0009 141.504 37.6716C141.678 37.3336 141.764 36.9479 141.764 36.5146C141.764 35.8559 141.574 35.3316 141.192 34.9416C140.82 34.5429 140.343 34.3436 139.762 34.3436C139.182 34.3436 138.705 34.5429 138.332 34.9416C137.96 35.3316 137.773 35.8559 137.773 36.5146C137.773 37.1733 137.96 37.7019 138.332 38.1006C138.714 38.4993 139.19 38.6986 139.762 38.6986ZM155.202 33.0436V39.9856H144.971V33.0436H146.596V38.6076H149.287V33.0436H150.912V38.6076H153.577V33.0436H155.202ZM156.203 38.6076V41.4156H154.682V39.9856H153.525V38.6076H156.203ZM157.387 33.0436H159.012V37.6196L162.847 33.0436H164.329V39.9856H162.704V35.4096L158.882 39.9856H157.387V33.0436ZM166.515 33.0436H168.14V37.6196L171.975 33.0436H173.457V39.9856H171.832V35.4096L168.01 39.9856H166.515V33.0436ZM169.882 32.2246C169.18 32.2246 168.643 32.0643 168.27 31.7436C167.906 31.4143 167.72 30.9376 167.711 30.3136H168.79C168.799 30.6256 168.894 30.8726 169.076 31.0546C169.267 31.2366 169.531 31.3276 169.869 31.3276C170.198 31.3276 170.458 31.2366 170.649 31.0546C170.848 30.8726 170.952 30.6256 170.961 30.3136H172.066C172.057 30.9376 171.867 31.4143 171.494 31.7436C171.121 32.0643 170.584 32.2246 169.882 32.2246ZM186.854 38.6076V41.5846H185.333V39.9856H179.236V33.0436H180.861V38.6076H184.176V33.0436H185.801V38.6076H186.854ZM194.8 36.5536C194.8 36.6663 194.791 36.8266 194.774 37.0346H189.327C189.422 37.5459 189.669 37.9533 190.068 38.2566C190.475 38.5513 190.978 38.6986 191.576 38.6986C192.339 38.6986 192.967 38.4473 193.461 37.9446L194.332 38.9456C194.02 39.3183 193.626 39.5999 193.149 39.7906C192.672 39.9813 192.135 40.0766 191.537 40.0766C190.774 40.0766 190.103 39.9249 189.522 39.6216C188.941 39.3183 188.491 38.8979 188.17 38.3606C187.858 37.8146 187.702 37.1993 187.702 36.5146C187.702 35.8386 187.854 35.2319 188.157 34.6946C188.469 34.1486 188.898 33.7239 189.444 33.4206C189.99 33.1173 190.605 32.9656 191.29 32.9656C191.966 32.9656 192.568 33.1173 193.097 33.4206C193.634 33.7153 194.05 34.1356 194.345 34.6816C194.648 35.2189 194.8 35.8429 194.8 36.5536ZM191.29 34.2656C190.77 34.2656 190.328 34.4216 189.964 34.7336C189.609 35.0369 189.392 35.4443 189.314 35.9556H193.253C193.184 35.4529 192.971 35.0456 192.616 34.7336C192.261 34.4216 191.819 34.2656 191.29 34.2656ZM196.577 33.0436H198.202V35.8646H201.699V33.0436H203.324V39.9856H201.699V37.2426H198.202V39.9856H196.577V33.0436ZM211.001 34.4216H208.57V39.9856H206.945V34.4216H204.501V33.0436H211.001V34.4216ZM216.028 32.9656C216.704 32.9656 217.306 33.1129 217.835 33.4076C218.372 33.7023 218.793 34.1183 219.096 34.6556C219.399 35.1929 219.551 35.8126 219.551 36.5146C219.551 37.2166 219.399 37.8406 219.096 38.3866C218.793 38.9239 218.372 39.3399 217.835 39.6346C217.306 39.9293 216.704 40.0766 216.028 40.0766C215.092 40.0766 214.351 39.7646 213.805 39.1406V42.5076H212.18V33.0436H213.727V33.9536C213.996 33.6243 214.325 33.3773 214.715 33.2126C215.114 33.0479 215.551 32.9656 216.028 32.9656ZM215.846 38.6856C216.444 38.6856 216.934 38.4863 217.315 38.0876C217.705 37.6889 217.9 37.1646 217.9 36.5146C217.9 35.8646 217.705 35.3403 217.315 34.9416C216.934 34.5429 216.444 34.3436 215.846 34.3436C215.456 34.3436 215.105 34.4346 214.793 34.6166C214.481 34.7899 214.234 35.0413 214.052 35.3706C213.87 35.6999 213.779 36.0813 213.779 36.5146C213.779 36.9479 213.87 37.3293 214.052 37.6586C214.234 37.9879 214.481 38.2436 214.793 38.4256C215.105 38.5989 215.456 38.6856 215.846 38.6856Z" fill="black"/>
<g clip-path="url(#clip0_103_22)">
<path fill-rule="evenodd" clip-rule="evenodd" d="M88.1417 25.001C92.383 25.001 94.8977 23.6659 97.1632 21.2241L95.367 19.28C95.0426 18.9873 94.7355 18.7589 94.4515 18.6359C93.8374 18.3666 93.3449 18.5891 92.8697 18.9053C92.7423 18.999 92.6148 19.0927 92.4873 19.1805C91.2995 20.0003 90.0306 20.4863 88.2923 20.4863C84.5203 20.4863 81.9129 17.3125 81.9129 13.5005C81.9129 9.68848 84.584 6.51471 88.2923 6.51471C89.9321 6.51471 91.1199 6.90704 92.2208 7.61558C92.4583 7.76782 92.6901 7.93178 92.9219 8.11331C93.2869 8.3124 93.6809 8.40023 94.1445 8.20114C94.8571 7.89665 95.7321 6.91875 96.6186 5.88816L96.6649 5.83546L96.7113 5.78276L96.7576 5.73005L96.804 5.67735L96.8503 5.62465C94.805 3.59274 92.4815 2.00586 88.3329 2.00586C73.0826 2.00586 73.2448 25.001 88.1417 25.001ZM109.082 25.001C115.873 25.001 120.804 19.8246 120.804 13.5005C120.804 7.1764 115.931 2 109.14 2C102.349 2 97.4182 7.1764 97.4182 13.5005C97.4182 19.8246 102.291 25.001 109.076 25.001H109.082ZM109.146 20.4922C105.246 20.4922 102.482 17.3184 102.482 13.5064C102.482 9.69433 105.182 6.52057 109.082 6.52057C112.981 6.52057 115.745 9.69433 115.745 13.5064C115.745 17.3184 113.045 20.4922 109.146 20.4922ZM136.21 16.1824C136.407 16.6274 136.598 17.0842 136.784 17.5526C136.969 17.0725 137.161 16.6099 137.363 16.159C137.566 15.7081 137.775 15.2689 137.995 14.8415L144.032 2.81979C144.143 2.61484 144.253 2.45089 144.363 2.33963C144.473 2.22251 144.6 2.14054 144.739 2.08783C144.878 2.03513 145.041 2.00586 145.214 2.00586H150V25.001H145.191V12.0834C145.191 11.4218 145.226 10.7015 145.29 9.92856L139.061 22.1493C138.864 22.5299 138.609 22.8169 138.279 23.016C137.949 23.2092 137.578 23.3087 137.155 23.3087H136.413C135.996 23.3087 135.619 23.2092 135.289 23.016C134.959 22.8227 134.698 22.5299 134.507 22.1493L128.243 9.91685C128.284 10.2975 128.319 10.6781 128.342 11.0528C128.365 11.4276 128.371 11.7731 128.371 12.0893V25.0069H123.562V2.00586H128.348C128.527 2.00586 128.684 2.03513 128.823 2.08783C128.962 2.14054 129.089 2.22837 129.199 2.33963C129.309 2.45089 129.419 2.61484 129.53 2.81979L135.585 14.8883C135.799 15.3041 136.007 15.7315 136.204 16.1765L136.21 16.1824ZM56.5633 25.001H51.2559V2.00586H56.5633V25.001ZM76.872 2.00586V6.23364H70.4694V25.001H65.1909V6.23364H58.7883V2.00586H76.872Z" fill="black"/>
<path fill-rule="evenodd" clip-rule="evenodd" d="M6.03755 6.90965C3.66311 6.90965 1.73826 8.85493 1.73826 11.2545V33.8984C1.73826 36.298 3.66311 38.2433 6.03755 38.2433H28.4437C30.8181 38.2433 32.743 36.298 32.743 33.8984V11.2545C32.743 8.85493 30.8181 6.90965 28.4437 6.90965H6.03755ZM0 11.2545C0 7.88473 2.7031 5.15295 6.03755 5.15295H28.4437C31.7781 5.15295 34.4812 7.88473 34.4812 11.2545V33.8984C34.4812 37.2682 31.7781 40 28.4437 40H6.03755C2.7031 40 0 37.2682 0 33.8984V11.2545Z" fill="black"/>
<path fill-rule="evenodd" clip-rule="evenodd" d="M13.8056 1.90677C11.5102 1.29299 9.15698 2.67599 8.54964 4.99578L2.81853 26.8863C2.21119 29.2061 3.57967 31.5843 5.87511 32.1981L27.5359 37.99C29.8313 38.6038 32.1845 37.2208 32.7918 34.901L38.523 13.0104C39.1303 10.6906 37.7618 8.31247 35.4664 7.69868L13.8056 1.90677ZM6.86921 4.54645C7.72211 1.28873 11.0267 -0.65343 14.2502 0.208513L35.911 6.00042C39.1345 6.86237 41.0563 10.202 40.2034 13.4597L34.4723 35.3503C33.6194 38.608 30.3148 40.5502 27.0913 39.6882L5.4305 33.8963C2.20697 33.0344 0.285201 29.6947 1.1381 26.437L6.86921 4.54645Z" fill="black"/>
</g>
<defs>
<clipPath id="clip0_103_22">
<rect width="150" height="40" fill="white"/>
</clipPath>
</defs>
</svg>
