<svg width="161" height="48" viewBox="0 0 161 48" fill="none" xmlns="http://www.w3.org/2000/svg">
<path d="M53.3372 46.826C53.0782 46.826 52.8422 46.7902 52.6293 46.7184C52.4194 46.6435 52.2492 46.5359 52.118 46.3955C51.9868 46.2552 51.91 46.084 51.887 45.8819C51.8836 45.8525 51.8919 45.8281 51.9115 45.8085C51.9346 45.7889 51.9607 45.7792 51.9902 45.7792H52.6293C52.6686 45.7792 52.6981 45.7856 52.7178 45.7987C52.7374 45.8119 52.7571 45.8345 52.7768 45.8672C52.8096 45.9421 52.8686 46.0042 52.9537 46.0531C53.0422 46.102 53.1636 46.1265 53.3175 46.1265C53.5077 46.1265 53.6552 46.0693 53.76 45.9553C53.8681 45.8412 53.9222 45.6798 53.9222 45.471V45.3927H52.9685C52.9325 45.3927 52.903 45.3796 52.88 45.3536C52.857 45.3276 52.8456 45.2964 52.8456 45.2606V44.8693C52.8456 44.8335 52.857 44.8023 52.88 44.7764C52.903 44.7504 52.9325 44.7372 52.9685 44.7372H53.9222V44.6687C53.9222 44.4404 53.8697 44.274 53.7649 44.1698C53.6601 44.0622 53.5108 44.0084 53.3175 44.0084C53.1636 44.0084 53.0422 44.0343 52.9537 44.0866C52.8686 44.1389 52.8146 44.2007 52.7915 44.2725C52.7719 44.3052 52.7537 44.3279 52.7374 44.341C52.7212 44.3541 52.6932 44.3606 52.6539 44.3606H52.0099C51.9804 44.3606 51.9543 44.3508 51.9312 44.3312C51.9082 44.3083 51.8983 44.2823 51.9017 44.2529C51.9278 44.0411 52.0065 43.865 52.1377 43.7246C52.2689 43.5843 52.4376 43.4801 52.644 43.4116C52.8505 43.3397 53.0816 43.304 53.3372 43.304C53.6257 43.304 53.8795 43.3544 54.0992 43.4556C54.3219 43.5534 54.4974 43.7051 54.6252 43.9105C54.7564 44.1126 54.8268 44.3737 54.8366 44.6932C54.84 44.7944 54.8415 44.8825 54.8415 44.9574C54.8449 45.0292 54.8449 45.1026 54.8415 45.1775C54.8415 45.2493 54.84 45.3355 54.8366 45.4367C54.8268 45.7596 54.7579 46.0237 54.6301 46.2292C54.5023 46.4347 54.3287 46.5863 54.109 46.6841C53.8893 46.7786 53.6322 46.826 53.3372 46.826ZM55.3254 46.7771C55.2925 46.7771 55.263 46.7658 55.2369 46.7428C55.2139 46.7168 55.2025 46.6875 55.2025 46.6548V46.2243C55.2025 46.1525 55.2418 46.1118 55.3205 46.102C55.4154 46.0922 55.4876 46.0482 55.5368 45.9699C55.586 45.8917 55.6204 45.7758 55.64 45.6226C55.6597 45.4695 55.6695 45.2768 55.6695 45.0454V44.3557C55.6695 44.3199 55.6809 44.2906 55.704 44.2676C55.7301 44.2447 55.7596 44.2334 55.7924 44.2334H57.7195C57.7555 44.2334 57.785 44.2447 57.808 44.2676C57.8308 44.2906 57.8424 44.3199 57.8424 44.3557V46.6548C57.8424 46.6906 57.8308 46.7199 57.808 46.7428C57.785 46.7658 57.7555 46.7771 57.7195 46.7771H57.1394C57.1066 46.7771 57.0771 46.7658 57.051 46.7428C57.0279 46.7199 57.0165 46.6906 57.0165 46.6548V44.8742H56.4561V45.1335C56.4561 45.4465 56.4395 45.7092 56.4069 45.921C56.3741 46.1329 56.3151 46.3011 56.23 46.4249C56.1446 46.5487 56.0284 46.6386 55.8809 46.6939C55.7334 46.7493 55.5482 46.7771 55.3254 46.7771ZM59.622 46.826C59.2352 46.826 58.927 46.7217 58.6978 46.5129C58.4683 46.3041 58.3488 45.9944 58.3389 45.5835C58.3389 45.5606 58.3389 45.5312 58.3389 45.4954C58.3389 45.4597 58.3389 45.4319 58.3389 45.4123C58.3488 45.1546 58.4059 44.9344 58.511 44.7519C58.6192 44.566 58.7666 44.4257 58.9534 44.3312C59.1433 44.2334 59.3646 44.1845 59.6171 44.1845C59.9053 44.1845 60.1431 44.2416 60.3299 44.3557C60.5198 44.4697 60.6624 44.6247 60.7576 44.8204C60.8526 45.0161 60.9002 45.2395 60.9002 45.4906V45.608C60.9002 45.6437 60.887 45.6731 60.8609 45.696C60.8378 45.7189 60.8099 45.7302 60.7773 45.7302H59.2042C59.2042 45.7336 59.2042 45.7385 59.2042 45.7449C59.2042 45.7513 59.2042 45.7581 59.2042 45.7645C59.2072 45.859 59.2238 45.9455 59.2533 46.0238C59.2828 46.102 59.3286 46.1641 59.391 46.2096C59.453 46.2552 59.5286 46.2781 59.6171 46.2781C59.6826 46.2781 59.7366 46.2683 59.7793 46.2488C59.8251 46.2258 59.8629 46.2014 59.8924 46.1754C59.9219 46.146 59.9446 46.1216 59.9612 46.102C59.9907 46.0693 60.0135 46.0497 60.0301 46.0433C60.0497 46.0335 60.0792 46.0286 60.1186 46.0286H60.7281C60.7607 46.0286 60.7871 46.0384 60.8068 46.058C60.8295 46.0742 60.8394 46.0987 60.8363 46.1314C60.8329 46.1867 60.805 46.2537 60.7527 46.3319C60.7002 46.4102 60.6231 46.4885 60.5217 46.5667C60.4233 46.6416 60.2986 46.7037 60.148 46.7526C59.9972 46.8015 59.8217 46.826 59.622 46.826ZM59.2042 45.246H60.035V45.2362C60.035 45.1319 60.0184 45.0405 59.9858 44.9622C59.9563 44.884 59.9087 44.8238 59.8433 44.7813C59.7809 44.7388 59.7056 44.7177 59.6171 44.7177C59.5286 44.7177 59.453 44.7388 59.391 44.7813C59.332 44.8238 59.2859 44.884 59.2533 44.9622C59.2205 45.0405 59.2042 45.1319 59.2042 45.2362V45.246ZM61.484 46.7771C61.4477 46.7771 61.4182 46.7658 61.3955 46.7428C61.3724 46.7199 61.3611 46.6906 61.3611 46.6548V44.3557C61.3611 44.3199 61.3724 44.2906 61.3955 44.2676C61.4182 44.2447 61.4477 44.2334 61.484 44.2334H62.0493C62.0853 44.2334 62.1148 44.2447 62.1378 44.2676C62.1605 44.2906 62.1722 44.3199 62.1722 44.3557V45.1677H62.4377L62.9735 44.3117C62.9834 44.2954 62.9997 44.2789 63.0227 44.2627C63.0454 44.2432 63.0749 44.2334 63.1112 44.2334H63.7404C63.7699 44.2334 63.7945 44.2432 63.8142 44.2627C63.8369 44.2789 63.8486 44.3019 63.8486 44.3312C63.8486 44.341 63.8452 44.3523 63.8388 44.3655C63.8354 44.3786 63.8305 44.3899 63.824 44.3997L63.1505 45.4661L63.9371 46.6156C63.95 46.6352 63.9567 46.6563 63.9567 46.6792C63.9567 46.7086 63.9469 46.7331 63.9272 46.7526C63.9076 46.7688 63.8812 46.7771 63.8486 46.7771H63.1554C63.1192 46.7771 63.0897 46.7707 63.0669 46.7575C63.0473 46.7413 63.0291 46.7217 63.0129 46.6988L62.4279 45.8085H62.1722V46.6548C62.1722 46.6906 62.1605 46.7199 62.1378 46.7428C62.1148 46.7658 62.0853 46.7771 62.0493 46.7771H61.484ZM65.1142 46.7771C65.0813 46.7771 65.0518 46.7658 65.0257 46.7428C65.0026 46.7199 64.9913 46.6906 64.9913 46.6548V44.8742H64.244C64.2111 44.8742 64.1816 44.8629 64.1555 44.84C64.1325 44.817 64.1211 44.7877 64.1211 44.7519V44.3557C64.1211 44.3199 64.1325 44.2906 64.1555 44.2676C64.1816 44.2447 64.2111 44.2334 64.244 44.2334H66.5546C66.5871 44.2334 66.6151 44.2447 66.6381 44.2676C66.6642 44.2906 66.6775 44.3199 66.6775 44.3557V44.7519C66.6775 44.7877 66.6642 44.817 66.6381 44.84C66.6151 44.8629 66.5871 44.8742 66.5546 44.8742H65.8073V46.6548C65.8073 46.6906 65.7956 46.7199 65.7729 46.7428C65.7499 46.7658 65.7204 46.7771 65.6844 46.7771H65.1142ZM67.1583 47.7065C67.1224 47.7065 67.0929 47.6952 67.0698 47.6723C67.0471 47.6493 67.0354 47.62 67.0354 47.5842V44.3557C67.0354 44.3199 67.0471 44.2906 67.0698 44.2676C67.0929 44.2447 67.1224 44.2334 67.1583 44.2334H67.7138C67.7467 44.2334 67.7747 44.2447 67.7974 44.2676C67.8238 44.2906 67.8367 44.3199 67.8367 44.3557V44.5367C67.9123 44.4355 68.0122 44.3523 68.1366 44.2872C68.2613 44.2187 68.4153 44.1845 68.5987 44.1845C68.7628 44.1845 68.9069 44.2105 69.0313 44.2627C69.1561 44.3116 69.2624 44.385 69.3509 44.4829C69.4393 44.5807 69.5082 44.6996 69.5573 44.84C69.6099 44.9803 69.6394 45.1417 69.6458 45.3242C69.6492 45.3894 69.6507 45.4499 69.6507 45.5052C69.6507 45.5606 69.6492 45.6211 69.6458 45.6862C69.6394 45.8623 69.6114 46.0204 69.5622 46.1607C69.5131 46.301 69.4443 46.42 69.3558 46.5178C69.2673 46.6156 69.1591 46.6924 69.0313 46.7477C68.9069 46.8 68.7628 46.826 68.5987 46.826C68.4383 46.826 68.2973 46.7982 68.1759 46.7428C68.0579 46.6841 67.9596 46.6025 67.881 46.4982V47.5842C67.881 47.62 67.8696 47.6493 67.8465 47.6723C67.8238 47.6952 67.7943 47.7065 67.7581 47.7065H67.1583ZM68.3332 46.1705C68.4448 46.1705 68.5317 46.1476 68.5938 46.102C68.6562 46.0565 68.7004 45.9944 68.7265 45.9161C68.756 45.8379 68.7741 45.7513 68.7806 45.6569C68.7874 45.5557 68.7874 45.4548 68.7806 45.3536C68.7741 45.2591 68.756 45.1726 68.7265 45.0943C68.7004 45.0161 68.6562 44.954 68.5938 44.9084C68.5317 44.8629 68.4448 44.84 68.3332 44.84C68.2251 44.84 68.1384 44.8644 68.0727 44.9133C68.0072 44.9589 67.9596 45.0194 67.9301 45.0943C67.9006 45.1692 67.8843 45.2509 67.881 45.3389C67.8779 45.401 67.876 45.4612 67.876 45.5199C67.876 45.5786 67.8779 45.6407 67.881 45.7058C67.8843 45.7874 67.9025 45.8639 67.935 45.9357C67.9679 46.0042 68.0171 46.0614 68.0825 46.1069C68.1483 46.1494 68.2318 46.1705 68.3332 46.1705ZM71.3461 46.826C71.0709 46.826 70.8383 46.782 70.6481 46.6939C70.4613 46.6059 70.3172 46.4802 70.2155 46.3173C70.1171 46.1509 70.0615 45.9537 70.0483 45.7254C70.0449 45.6602 70.0434 45.5869 70.0434 45.5052C70.0434 45.4205 70.0449 45.3472 70.0483 45.2851C70.0615 45.0537 70.1205 44.8562 70.2253 44.6932C70.3301 44.5303 70.476 44.4046 70.6628 44.3165C70.853 44.2285 71.0807 44.1845 71.3461 44.1845C71.615 44.1845 71.8427 44.2285 72.0295 44.3165C72.2197 44.4046 72.3671 44.5303 72.4719 44.6932C72.5767 44.8562 72.6357 45.0537 72.6489 45.2851C72.6523 45.3472 72.6538 45.4205 72.6538 45.5052C72.6538 45.5869 72.6523 45.6602 72.6489 45.7254C72.6357 45.9537 72.5785 46.1509 72.4768 46.3173C72.3785 46.4802 72.2344 46.6059 72.0442 46.6939C71.8574 46.782 71.6248 46.826 71.3461 46.826ZM71.3461 46.2292C71.4936 46.2292 71.6002 46.1852 71.6657 46.0971C71.7345 46.0091 71.7738 45.877 71.7837 45.7009C71.7871 45.652 71.7886 45.5869 71.7886 45.5052C71.7886 45.4236 71.7871 45.3585 71.7837 45.3096C71.7738 45.1368 71.7345 45.0063 71.6657 44.9182C71.6002 44.8268 71.4936 44.7813 71.3461 44.7813C71.202 44.7813 71.0954 44.8268 71.0266 44.9182C70.9578 45.0063 70.92 45.1368 70.9135 45.3096C70.9102 45.3585 70.9086 45.4236 70.9086 45.5052C70.9086 45.5869 70.9102 45.652 70.9135 45.7009C70.92 45.877 70.9578 46.0091 71.0266 46.0971C71.0954 46.1852 71.202 46.2292 71.3461 46.2292ZM73.2603 46.7771C73.2241 46.7771 73.1946 46.7658 73.1718 46.7428C73.1488 46.7199 73.1374 46.6906 73.1374 46.6548V44.3557C73.1374 44.3199 73.1488 44.2906 73.1718 44.2676C73.1946 44.2447 73.2241 44.2334 73.2603 44.2334H73.8404C73.873 44.2334 73.901 44.2447 73.924 44.2676C73.9501 44.2906 73.9633 44.3199 73.9633 44.3557V45.1677H74.8482V44.3557C74.8482 44.3199 74.8596 44.2906 74.8826 44.2676C74.9054 44.2447 74.9349 44.2334 74.9711 44.2334H75.5512C75.5838 44.2334 75.6117 44.2447 75.6348 44.2676C75.6609 44.2906 75.6741 44.3199 75.6741 44.3557V46.6548C75.6741 46.6906 75.6609 46.7199 75.6348 46.7428C75.6117 46.7658 75.5838 46.7771 75.5512 46.7771H74.9711C74.9349 46.7771 74.9054 46.7658 74.8826 46.7428C74.8596 46.7199 74.8482 46.6906 74.8482 46.6548V45.8085H73.9633V46.6548C73.9633 46.6906 73.9501 46.7199 73.924 46.7428C73.901 46.7658 73.873 46.7771 73.8404 46.7771H73.2603ZM76.3952 46.7771C76.3593 46.7771 76.3298 46.7658 76.3067 46.7428C76.2837 46.7199 76.2723 46.6906 76.2723 46.6548V44.3557C76.2723 44.3199 76.2837 44.2906 76.3067 44.2676C76.3298 44.2447 76.3593 44.2334 76.3952 44.2334H76.9753C77.0082 44.2334 77.0358 44.2447 77.0589 44.2676C77.085 44.2906 77.0982 44.3199 77.0982 44.3557V45.1677H77.9831V44.3557C77.9831 44.3199 77.9945 44.2906 78.0175 44.2676C78.0406 44.2447 78.07 44.2334 78.106 44.2334H78.6861C78.719 44.2334 78.7466 44.2447 78.7697 44.2676C78.7958 44.2906 78.809 44.3199 78.809 44.3557V46.6548C78.809 46.6906 78.7958 46.7199 78.7697 46.7428C78.7466 46.7658 78.719 46.7771 78.6861 46.7771H78.106C78.07 46.7771 78.0406 46.7658 78.0175 46.7428C77.9945 46.7199 77.9831 46.6906 77.9831 46.6548V45.8085H77.0982V46.6548C77.0982 46.6906 77.085 46.7199 77.0589 46.7428C77.0358 46.7658 77.0082 46.7771 76.9753 46.7771H76.3952ZM80.1741 46.826C79.9971 46.826 79.8383 46.7933 79.6973 46.7282C79.5596 46.6597 79.4499 46.5683 79.3679 46.4542C79.2858 46.3402 79.245 46.2112 79.245 46.0678C79.245 45.8363 79.3399 45.6535 79.5301 45.5199C79.7203 45.3829 79.9726 45.29 80.2872 45.2411L80.9017 45.1481V45.0796C80.9017 44.9622 80.8771 44.8727 80.8279 44.8106C80.7788 44.7485 80.6888 44.7177 80.5576 44.7177C80.4657 44.7177 80.3904 44.7357 80.3314 44.7715C80.2758 44.8072 80.2316 44.8562 80.1987 44.9182C80.1692 44.9607 80.1283 44.9818 80.0758 44.9818H79.5252C79.4892 44.9818 79.4613 44.972 79.4416 44.9525C79.422 44.9295 79.4137 44.9035 79.417 44.8742C79.417 44.8155 79.4382 44.7485 79.4809 44.6736C79.5267 44.5954 79.5956 44.5186 79.6874 44.4437C79.7793 44.3688 79.8973 44.3068 80.0414 44.2578C80.1855 44.2089 80.3594 44.1845 80.5625 44.1845C80.7754 44.1845 80.9573 44.2089 81.1082 44.2578C81.259 44.3068 81.3801 44.3752 81.4719 44.4633C81.5669 44.5513 81.6375 44.6556 81.6833 44.7764C81.7291 44.8938 81.7522 45.0243 81.7522 45.1677V46.6548C81.7522 46.6906 81.7389 46.7199 81.7128 46.7428C81.6898 46.7658 81.6621 46.7771 81.6293 46.7771H81.059C81.0231 46.7771 80.9936 46.7658 80.9705 46.7428C80.9475 46.7199 80.9361 46.6906 80.9361 46.6548V46.4836C80.8934 46.5456 80.8362 46.6025 80.764 46.6548C80.6918 46.7071 80.6067 46.7477 80.5084 46.7771C80.4135 46.8098 80.3019 46.826 80.1741 46.826ZM80.4052 46.2683C80.5001 46.2683 80.5855 46.2488 80.6608 46.2096C80.7395 46.1671 80.8 46.1035 80.8427 46.0189C80.8885 45.9308 80.9115 45.8217 80.9115 45.6911V45.6226L80.4937 45.696C80.3397 45.722 80.2267 45.763 80.1544 45.8183C80.0856 45.8706 80.0512 45.9323 80.0512 46.0042C80.0512 46.0595 80.0675 46.1069 80.1004 46.146C80.1332 46.1852 80.1756 46.2161 80.2282 46.239C80.2807 46.2586 80.3397 46.2683 80.4052 46.2683ZM83.9539 46.7771C83.9177 46.7771 83.8882 46.7658 83.8654 46.7428C83.8424 46.7199 83.831 46.6906 83.831 46.6548V45.9602H83.4181V45.9357C83.0706 45.9357 82.8051 45.8608 82.6217 45.7107C82.4379 45.5575 82.3464 45.3502 82.3464 45.0894C82.3464 44.8091 82.4379 44.5969 82.6217 44.4535C82.8051 44.3068 83.0607 44.2334 83.3886 44.2334H84.5537C84.5896 44.2334 84.6191 44.2447 84.6422 44.2676C84.6649 44.2906 84.6766 44.3199 84.6766 44.3557V46.6548C84.6766 46.6906 84.6649 46.7199 84.6422 46.7428C84.6191 46.7658 84.5896 46.7771 84.5537 46.7771H83.9539ZM82.366 46.7771C82.3332 46.7771 82.3071 46.7673 82.2874 46.7477C82.2677 46.7282 82.2579 46.7052 82.2579 46.6792C82.2579 46.6695 82.2594 46.6597 82.2628 46.6499C82.2693 46.6367 82.2757 46.6239 82.2825 46.6108L82.8085 45.7498L83.5262 45.8721L83.069 46.7037C83.0558 46.7233 83.0395 46.7413 83.0199 46.7575C83.0002 46.7707 82.9772 46.7771 82.9511 46.7771H82.366ZM83.4181 45.3976H83.8458V44.7959H83.4377C83.3164 44.7959 83.2264 44.8189 83.1674 44.8644C83.1114 44.91 83.0838 44.9852 83.0838 45.0894C83.0838 45.1808 83.1099 45.2558 83.1624 45.3145C83.2181 45.3698 83.3032 45.3976 83.4181 45.3976ZM87.2544 46.7771C87.2185 46.7771 87.189 46.7658 87.1659 46.7428C87.1429 46.7199 87.1315 46.6906 87.1315 46.6548V44.1209H86.2565C86.2205 44.1209 86.191 44.1096 86.168 44.0866C86.1449 44.0606 86.1336 44.0313 86.1336 43.9986V43.4752C86.1336 43.4394 86.1449 43.41 86.168 43.3871C86.191 43.3642 86.2205 43.3529 86.2565 43.3529H88.9013C88.9372 43.3529 88.9667 43.3642 88.9898 43.3871C89.0128 43.41 89.0242 43.4394 89.0242 43.4752V43.9986C89.0242 44.0313 89.0128 44.0606 88.9898 44.0866C88.9667 44.1096 88.9372 44.1209 88.9013 44.1209H88.0262V46.6548C88.0262 46.6906 88.0149 46.7199 87.9918 46.7428C87.9688 46.7658 87.9393 46.7771 87.9033 46.7771H87.2544ZM90.6262 46.826C90.3509 46.826 90.1183 46.782 89.9281 46.6939C89.7413 46.6059 89.5972 46.4802 89.4955 46.3173C89.3972 46.1509 89.3416 45.9537 89.3284 45.7254C89.325 45.6602 89.3235 45.5869 89.3235 45.5052C89.3235 45.4205 89.325 45.3472 89.3284 45.2851C89.3416 45.0537 89.4006 44.8562 89.5053 44.6932C89.6101 44.5303 89.7561 44.4046 89.9429 44.3165C90.1331 44.2285 90.3607 44.1845 90.6262 44.1845C90.8951 44.1845 91.1227 44.2285 91.3095 44.3165C91.4997 44.4046 91.6472 44.5303 91.752 44.6932C91.8568 44.8562 91.9157 45.0537 91.929 45.2851C91.9323 45.3472 91.9339 45.4205 91.9339 45.5052C91.9339 45.5869 91.9323 45.6602 91.929 45.7254C91.9157 45.9537 91.8586 46.1509 91.7569 46.3173C91.6586 46.4802 91.5145 46.6059 91.3243 46.6939C91.1375 46.782 90.9049 46.826 90.6262 46.826ZM90.6262 46.2292C90.7737 46.2292 90.8803 46.1852 90.9457 46.0971C91.0146 46.0091 91.0539 45.877 91.0637 45.7009C91.0671 45.652 91.0687 45.5869 91.0687 45.5052C91.0687 45.4236 91.0671 45.3585 91.0637 45.3096C91.0539 45.1368 91.0146 45.0063 90.9457 44.9182C90.8803 44.8268 90.7737 44.7813 90.6262 44.7813C90.4821 44.7813 90.3755 44.8268 90.3067 44.9182C90.2378 45.0063 90.2 45.1368 90.1936 45.3096C90.1902 45.3585 90.1887 45.4236 90.1887 45.5052C90.1887 45.5869 90.1902 45.652 90.1936 45.7009C90.2 45.877 90.2378 46.0091 90.3067 46.0971C90.3755 46.1852 90.4821 46.2292 90.6262 46.2292ZM92.5404 47.7065C92.5041 47.7065 92.4746 47.6952 92.4519 47.6723C92.4289 47.6493 92.4175 47.62 92.4175 47.5842V44.3557C92.4175 44.3199 92.4289 44.2906 92.4519 44.2676C92.4746 44.2447 92.5041 44.2334 92.5404 44.2334H93.0959C93.1285 44.2334 93.1564 44.2447 93.1795 44.2676C93.2056 44.2906 93.2188 44.3199 93.2188 44.3557V44.5367C93.2941 44.4355 93.3939 44.3523 93.5187 44.2872C93.6431 44.2187 93.7971 44.1845 93.9808 44.1845C94.1446 44.1845 94.2887 44.2105 94.4134 44.2627C94.5378 44.3116 94.6445 44.385 94.7329 44.4829C94.8214 44.5807 94.8903 44.6996 94.9394 44.84C94.9916 44.9803 95.0211 45.1417 95.0279 45.3242C95.031 45.3894 95.0328 45.4499 95.0328 45.5052C95.0328 45.5606 95.031 45.6211 95.0279 45.6862C95.0211 45.8623 94.9935 46.0204 94.9443 46.1607C94.8952 46.301 94.8263 46.42 94.7379 46.5178C94.6494 46.6156 94.5412 46.6924 94.4134 46.7477C94.2887 46.8 94.1446 46.826 93.9808 46.826C93.8201 46.826 93.6791 46.7982 93.558 46.7428C93.44 46.6841 93.3417 46.6025 93.263 46.4982V47.5842C93.263 47.62 93.2514 47.6493 93.2286 47.6723C93.2056 47.6952 93.1761 47.7065 93.1401 47.7065H92.5404ZM93.7153 46.1705C93.8265 46.1705 93.9135 46.1476 93.9759 46.102C94.0379 46.0565 94.0822 45.9944 94.1086 45.9161C94.1381 45.8379 94.1559 45.7513 94.1627 45.6569C94.1691 45.5557 94.1691 45.4548 94.1627 45.3536C94.1559 45.2591 94.1381 45.1726 94.1086 45.0943C94.0822 45.0161 94.0379 44.954 93.9759 44.9084C93.9135 44.8629 93.8265 44.84 93.7153 44.84C93.6072 44.84 93.5202 44.8644 93.4548 44.9133C93.389 44.9589 93.3417 45.0194 93.3122 45.0943C93.2827 45.1692 93.2661 45.2509 93.263 45.3389C93.2597 45.401 93.2581 45.4612 93.2581 45.5199C93.2581 45.5786 93.2597 45.6407 93.263 45.7058C93.2661 45.7874 93.2842 45.8639 93.3171 45.9357C93.3497 46.0042 93.3989 46.0614 93.4646 46.1069C93.53 46.1494 93.6136 46.1705 93.7153 46.1705ZM95.6418 46.7771C95.6055 46.7771 95.576 46.7658 95.553 46.7428C95.5303 46.7199 95.5189 46.6906 95.5189 46.6548V44.3557C95.5189 44.3199 95.5303 44.2906 95.553 44.2676C95.576 44.2447 95.6055 44.2334 95.6418 44.2334H97.2837C97.3163 44.2334 97.3443 44.2447 97.3673 44.2676C97.3934 44.2906 97.4066 44.3199 97.4066 44.3557V44.7519C97.4066 44.7877 97.3934 44.817 97.3673 44.84C97.3443 44.8629 97.3163 44.8742 97.2837 44.8742H96.3448V46.6548C96.3448 46.6906 96.3316 46.7199 96.3054 46.7428C96.2824 46.7658 96.2545 46.7771 96.2219 46.7771H95.6418ZM98.9844 46.826C98.7091 46.826 98.4765 46.782 98.2863 46.6939C98.0995 46.6059 97.9554 46.4802 97.8537 46.3173C97.7554 46.1509 97.6998 45.9537 97.6866 45.7254C97.6835 45.6602 97.6816 45.5869 97.6816 45.5052C97.6816 45.4205 97.6835 45.3472 97.6866 45.2851C97.6998 45.0537 97.7588 44.8562 97.8635 44.6932C97.9686 44.5303 98.1142 44.4046 98.3011 44.3165C98.4912 44.2285 98.7189 44.1845 98.9844 44.1845C99.2532 44.1845 99.4809 44.2285 99.6677 44.3165C99.8579 44.4046 100.005 44.5303 100.11 44.6932C100.215 44.8562 100.274 45.0537 100.287 45.2851C100.291 45.3472 100.292 45.4205 100.292 45.5052C100.292 45.5869 100.291 45.6602 100.287 45.7254C100.274 45.9537 100.217 46.1509 100.115 46.3173C100.017 46.4802 99.8727 46.6059 99.6825 46.6939C99.4957 46.782 99.2631 46.826 98.9844 46.826ZM98.9844 46.2292C99.1319 46.2292 99.2385 46.1852 99.3039 46.0971C99.3727 46.0091 99.4121 45.877 99.4219 45.7009C99.4253 45.652 99.4268 45.5869 99.4268 45.5052C99.4268 45.4236 99.4253 45.3585 99.4219 45.3096C99.4121 45.1368 99.3727 45.0063 99.3039 44.9182C99.2385 44.8268 99.1319 44.7813 98.9844 44.7813C98.8403 44.7813 98.7337 44.8268 98.6648 44.9182C98.596 45.0063 98.5585 45.1368 98.5518 45.3096C98.5487 45.3585 98.5469 45.4236 98.5469 45.5052C98.5469 45.5869 98.5487 45.652 98.5518 45.7009C98.5585 45.877 98.596 46.0091 98.6648 46.0971C98.7337 46.1852 98.8403 46.2292 98.9844 46.2292ZM100.899 46.7771C100.863 46.7771 100.833 46.7658 100.81 46.7428C100.787 46.7199 100.776 46.6906 100.776 46.6548V44.3557C100.776 44.3199 100.787 44.2906 100.81 44.2676C100.833 44.2447 100.863 44.2334 100.899 44.2334H102.049C102.439 44.2334 102.722 44.2985 102.899 44.4291C103.08 44.5596 103.17 44.7357 103.17 44.9574C103.17 45.0812 103.145 45.1824 103.096 45.2606C103.047 45.3389 102.981 45.404 102.899 45.4563C103.008 45.5116 103.093 45.5884 103.155 45.6862C103.217 45.7841 103.248 45.8966 103.248 46.0238C103.248 46.2586 103.157 46.4429 102.973 46.5765C102.79 46.7101 102.505 46.7771 102.118 46.7771H100.899ZM101.572 46.2537H102.073C102.175 46.2537 102.257 46.2356 102.319 46.1999C102.382 46.1607 102.413 46.0987 102.413 46.014C102.413 45.9293 102.383 45.8687 102.324 45.833C102.269 45.7938 102.185 45.7743 102.073 45.7743H101.572V46.2537ZM101.572 45.2264H102.064C102.165 45.2264 102.246 45.2068 102.305 45.1677C102.367 45.1252 102.398 45.0634 102.398 44.9818C102.398 44.8971 102.367 44.8384 102.305 44.8057C102.246 44.773 102.165 44.7568 102.064 44.7568H101.572V45.2264ZM104.524 46.826C104.347 46.826 104.188 46.7933 104.047 46.7282C103.909 46.6597 103.8 46.5683 103.718 46.4542C103.636 46.3402 103.595 46.2112 103.595 46.0678C103.595 45.8363 103.69 45.6535 103.88 45.5199C104.07 45.3829 104.322 45.29 104.637 45.2411L105.251 45.1481V45.0796C105.251 44.9622 105.227 44.8727 105.178 44.8106C105.128 44.7485 105.038 44.7177 104.907 44.7177C104.815 44.7177 104.74 44.7357 104.681 44.7715C104.626 44.8072 104.581 44.8562 104.548 44.9182C104.519 44.9607 104.478 44.9818 104.426 44.9818H103.875C103.839 44.9818 103.811 44.972 103.791 44.9525C103.772 44.9295 103.763 44.9035 103.767 44.8742C103.767 44.8155 103.788 44.7485 103.831 44.6736C103.876 44.5954 103.945 44.5186 104.037 44.4437C104.129 44.3688 104.247 44.3068 104.391 44.2578C104.535 44.2089 104.709 44.1845 104.912 44.1845C105.125 44.1845 105.307 44.2089 105.458 44.2578C105.609 44.3068 105.73 44.3752 105.822 44.4633C105.917 44.5513 105.987 44.6556 106.033 44.7764C106.079 44.8938 106.102 45.0243 106.102 45.1677V46.6548C106.102 46.6906 106.089 46.7199 106.063 46.7428C106.039 46.7658 106.012 46.7771 105.979 46.7771H105.409C105.373 46.7771 105.343 46.7658 105.32 46.7428C105.297 46.7199 105.286 46.6906 105.286 46.6548V46.4836C105.243 46.5456 105.186 46.6025 105.114 46.6548C105.042 46.7071 104.956 46.7477 104.858 46.7771C104.763 46.8098 104.652 46.826 104.524 46.826ZM104.755 46.2683C104.85 46.2683 104.935 46.2488 105.011 46.2096C105.089 46.1671 105.15 46.1035 105.192 46.0189C105.238 45.9308 105.261 45.8217 105.261 45.6911V45.6226L104.843 45.696C104.689 45.722 104.576 45.763 104.504 45.8183C104.435 45.8706 104.401 45.9323 104.401 46.0042C104.401 46.0595 104.417 46.1069 104.45 46.146C104.483 46.1852 104.525 46.2161 104.578 46.239C104.63 46.2586 104.689 46.2683 104.755 46.2683ZM108.304 46.7771C108.267 46.7771 108.238 46.7658 108.215 46.7428C108.192 46.7199 108.181 46.6906 108.181 46.6548V45.9602H107.768V45.9357C107.42 45.9357 107.155 45.8608 106.971 45.7107C106.788 45.5575 106.696 45.3502 106.696 45.0894C106.696 44.8091 106.788 44.5969 106.971 44.4535C107.155 44.3068 107.41 44.2334 107.738 44.2334H108.903C108.939 44.2334 108.969 44.2447 108.992 44.2676C109.015 44.2906 109.026 44.3199 109.026 44.3557V46.6548C109.026 46.6906 109.015 46.7199 108.992 46.7428C108.969 46.7658 108.939 46.7771 108.903 46.7771H108.304ZM106.716 46.7771C106.683 46.7771 106.657 46.7673 106.637 46.7477C106.617 46.7282 106.608 46.7052 106.608 46.6792C106.608 46.6695 106.609 46.6597 106.613 46.6499C106.619 46.6367 106.625 46.6239 106.632 46.6108L107.158 45.7498L107.876 45.8721L107.419 46.7037C107.406 46.7233 107.389 46.7413 107.37 46.7575C107.35 46.7707 107.327 46.7771 107.301 46.7771H106.716ZM107.768 45.3976H108.195V44.7959H107.787C107.666 44.7959 107.576 44.8189 107.517 44.8644C107.461 44.91 107.434 44.9852 107.434 45.0894C107.434 45.1808 107.46 45.2558 107.512 45.3145C107.568 45.3698 107.653 45.3976 107.768 45.3976ZM112.135 46.826C111.824 46.826 111.557 46.7755 111.334 46.6744C111.114 46.5732 110.942 46.4249 110.818 46.2292C110.696 46.0335 110.629 45.7905 110.616 45.5003C110.613 45.3667 110.611 45.223 110.611 45.0699C110.611 44.9167 110.613 44.7699 110.616 44.6296C110.629 44.3459 110.698 44.1062 110.822 43.9105C110.947 43.7115 111.121 43.5617 111.344 43.4605C111.566 43.3562 111.83 43.304 112.135 43.304C112.351 43.304 112.551 43.3318 112.735 43.3871C112.918 43.4394 113.079 43.5177 113.217 43.6219C113.354 43.7231 113.461 43.8469 113.536 43.9937C113.615 44.1371 113.656 44.3003 113.659 44.4829C113.662 44.5122 113.653 44.5367 113.63 44.5562C113.61 44.5758 113.585 44.5856 113.556 44.5856H112.892C112.849 44.5856 112.817 44.5773 112.794 44.5611C112.771 44.5416 112.751 44.5073 112.735 44.4584C112.689 44.2857 112.613 44.1683 112.509 44.1062C112.407 44.0411 112.281 44.0084 112.13 44.0084C111.95 44.0084 111.807 44.0588 111.702 44.16C111.598 44.2578 111.54 44.4226 111.53 44.6541C111.521 44.9216 111.521 45.1955 111.53 45.4759C111.54 45.7073 111.598 45.8736 111.702 45.9748C111.807 46.0727 111.95 46.1216 112.13 46.1216C112.281 46.1216 112.409 46.0889 112.514 46.0238C112.618 45.9586 112.692 45.8412 112.735 45.6715C112.748 45.6226 112.766 45.5899 112.789 45.5737C112.815 45.5541 112.849 45.5444 112.892 45.5444H113.556C113.585 45.5444 113.61 45.5541 113.63 45.5737C113.653 45.5933 113.662 45.6177 113.659 45.6471C113.656 45.8296 113.615 45.9944 113.536 46.1412C113.461 46.2845 113.354 46.4087 113.217 46.5129C113.079 46.6141 112.918 46.6924 112.735 46.7477C112.551 46.8 112.351 46.826 112.135 46.826ZM114.24 46.7771C114.207 46.7771 114.179 46.7658 114.156 46.7428C114.133 46.7199 114.122 46.6924 114.122 46.6597V44.3557C114.122 44.3199 114.133 44.2906 114.156 44.2676C114.179 44.2447 114.209 44.2334 114.245 44.2334H114.825C114.858 44.2334 114.886 44.2447 114.908 44.2676C114.935 44.2906 114.948 44.3199 114.948 44.3557V46.1412L114.726 46.0335L115.941 44.3117C115.957 44.2887 115.977 44.271 116 44.2578C116.023 44.2416 116.049 44.2334 116.078 44.2334H116.604C116.637 44.2334 116.665 44.2447 116.688 44.2676C116.711 44.2906 116.722 44.3181 116.722 44.3508V46.6548C116.722 46.6906 116.711 46.7199 116.688 46.7428C116.665 46.7658 116.636 46.7771 116.599 46.7771H116.019C115.983 46.7771 115.954 46.7658 115.931 46.7428C115.908 46.7199 115.896 46.6906 115.896 46.6548V44.9231L116.123 44.9671L114.898 46.6988C114.886 46.7217 114.867 46.7413 114.844 46.7575C114.822 46.7707 114.794 46.7771 114.761 46.7771H114.24ZM118.432 46.826C118.189 46.826 117.975 46.782 117.788 46.6939C117.601 46.6059 117.452 46.4787 117.341 46.3124C117.232 46.1427 117.173 45.9406 117.164 45.7058C117.16 45.6535 117.159 45.5884 117.159 45.5101C117.159 45.4285 117.16 45.3618 117.164 45.3096C117.173 45.0714 117.232 44.8693 117.341 44.703C117.449 44.5333 117.596 44.4046 117.783 44.3165C117.973 44.2285 118.189 44.1845 118.432 44.1845C118.658 44.1845 118.851 44.2172 119.012 44.2823C119.172 44.3444 119.304 44.4226 119.405 44.5171C119.507 44.6116 119.582 44.7094 119.631 44.8106C119.684 44.9084 119.712 44.995 119.715 45.0699C119.718 45.1026 119.707 45.1319 119.681 45.1579C119.654 45.1808 119.625 45.1922 119.592 45.1922H118.968C118.931 45.1922 118.904 45.1839 118.884 45.1677C118.865 45.1515 118.846 45.127 118.83 45.0943C118.791 44.9931 118.74 44.9216 118.678 44.8791C118.619 44.8366 118.542 44.8155 118.447 44.8155C118.315 44.8155 118.214 44.858 118.142 44.9427C118.073 45.0274 118.035 45.1579 118.029 45.334C118.025 45.4646 118.025 45.5801 118.029 45.6813C118.035 45.8608 118.073 45.991 118.142 46.0727C118.214 46.1543 118.315 46.195 118.447 46.195C118.548 46.195 118.629 46.1739 118.688 46.1314C118.747 46.0889 118.794 46.0173 118.83 45.9161C118.846 45.8834 118.865 45.859 118.884 45.8428C118.904 45.8266 118.931 45.8183 118.968 45.8183H119.592C119.625 45.8183 119.654 45.8314 119.681 45.8574C119.707 45.8804 119.718 45.9079 119.715 45.9406C119.712 45.9959 119.695 46.0614 119.666 46.1363C119.636 46.2081 119.59 46.2845 119.528 46.3662C119.466 46.4478 119.384 46.5242 119.282 46.5961C119.184 46.6646 119.064 46.7199 118.923 46.7624C118.782 46.8049 118.619 46.826 118.432 46.826ZM120.928 46.7771C120.895 46.7771 120.866 46.7658 120.84 46.7428C120.817 46.7199 120.805 46.6906 120.805 46.6548V44.8742H120.058C120.025 44.8742 119.996 44.8629 119.97 44.84C119.947 44.817 119.935 44.7877 119.935 44.7519V44.3557C119.935 44.3199 119.947 44.2906 119.97 44.2676C119.996 44.2447 120.025 44.2334 120.058 44.2334H122.369C122.402 44.2334 122.429 44.2447 122.452 44.2676C122.478 44.2906 122.492 44.3199 122.492 44.3557V44.7519C122.492 44.7877 122.478 44.817 122.452 44.84C122.429 44.8629 122.402 44.8742 122.369 44.8742H121.621V46.6548C121.621 46.6906 121.61 46.7199 121.587 46.7428C121.564 46.7658 121.535 46.7771 121.499 46.7771H120.928ZM124.03 46.826C123.643 46.826 123.335 46.7217 123.105 46.5129C122.876 46.3041 122.756 45.9944 122.747 45.5835C122.747 45.5606 122.747 45.5312 122.747 45.4954C122.747 45.4597 122.747 45.4319 122.747 45.4123C122.756 45.1546 122.814 44.9344 122.919 44.7519C123.027 44.566 123.174 44.4257 123.361 44.3312C123.551 44.2334 123.772 44.1845 124.025 44.1845C124.313 44.1845 124.551 44.2416 124.738 44.3557C124.928 44.4697 125.07 44.6247 125.165 44.8204C125.26 45.0161 125.308 45.2395 125.308 45.4906V45.608C125.308 45.6437 125.295 45.6731 125.269 45.696C125.246 45.7189 125.218 45.7302 125.185 45.7302H123.612C123.612 45.7336 123.612 45.7385 123.612 45.7449C123.612 45.7513 123.612 45.7581 123.612 45.7645C123.615 45.859 123.632 45.9455 123.661 46.0238C123.691 46.102 123.736 46.1641 123.799 46.2096C123.861 46.2552 123.936 46.2781 124.025 46.2781C124.09 46.2781 124.144 46.2683 124.187 46.2488C124.233 46.2258 124.271 46.2014 124.3 46.1754C124.33 46.146 124.352 46.1216 124.369 46.102C124.398 46.0693 124.421 46.0497 124.438 46.0433C124.457 46.0335 124.487 46.0286 124.526 46.0286H125.136C125.168 46.0286 125.195 46.0384 125.214 46.058C125.237 46.0742 125.247 46.0987 125.244 46.1314C125.241 46.1867 125.213 46.2537 125.16 46.3319C125.108 46.4102 125.031 46.4885 124.929 46.5667C124.831 46.6416 124.706 46.7037 124.556 46.7526C124.405 46.8015 124.229 46.826 124.03 46.826ZM123.612 45.246H124.443V45.2362C124.443 45.1319 124.426 45.0405 124.394 44.9622C124.364 44.884 124.316 44.8238 124.251 44.7813C124.189 44.7388 124.113 44.7177 124.025 44.7177C123.936 44.7177 123.861 44.7388 123.799 44.7813C123.74 44.8238 123.694 44.884 123.661 44.9622C123.628 45.0405 123.612 45.1319 123.612 45.2362V45.246ZM125.867 46.7771C125.841 46.7771 125.818 46.7673 125.798 46.7477C125.779 46.7282 125.769 46.7037 125.769 46.6744V44.3312C125.769 44.3052 125.779 44.2823 125.798 44.2627C125.818 44.2432 125.841 44.2334 125.867 44.2334H126.432C126.491 44.2334 126.539 44.2627 126.575 44.3214L127.244 45.5101L127.917 44.3214C127.953 44.2627 128.001 44.2334 128.06 44.2334H128.625C128.654 44.2334 128.679 44.2432 128.699 44.2627C128.718 44.2823 128.728 44.3052 128.728 44.3312V46.6744C128.728 46.7037 128.718 46.7282 128.699 46.7477C128.679 46.7673 128.654 46.7771 128.625 46.7771H128.015C127.986 46.7771 127.961 46.7673 127.942 46.7477C127.922 46.7282 127.912 46.7037 127.912 46.6744V45.0796L128.153 45.1335L127.489 46.2879C127.473 46.3173 127.453 46.3432 127.43 46.3662C127.411 46.3857 127.381 46.3955 127.342 46.3955H127.145C127.112 46.3955 127.084 46.3857 127.062 46.3662C127.039 46.3466 127.017 46.3206 126.998 46.2879L126.354 45.1628L126.58 45.1139V46.6744C126.58 46.7037 126.57 46.7282 126.55 46.7477C126.531 46.7673 126.506 46.7771 126.477 46.7771H125.867ZM130.093 46.826C129.916 46.826 129.757 46.7933 129.616 46.7282C129.479 46.6597 129.369 46.5683 129.287 46.4542C129.205 46.3402 129.164 46.2112 129.164 46.0678C129.164 45.8363 129.259 45.6535 129.449 45.5199C129.639 45.3829 129.891 45.29 130.206 45.2411L130.821 45.1481V45.0796C130.821 44.9622 130.796 44.8727 130.747 44.8106C130.698 44.7485 130.607 44.7177 130.476 44.7177C130.385 44.7177 130.309 44.7357 130.25 44.7715C130.194 44.8072 130.15 44.8562 130.118 44.9182C130.088 44.9607 130.047 44.9818 129.995 44.9818H129.444C129.408 44.9818 129.38 44.972 129.361 44.9525C129.341 44.9295 129.333 44.9035 129.336 44.8742C129.336 44.8155 129.357 44.7485 129.4 44.6736C129.446 44.5954 129.514 44.5186 129.606 44.4437C129.698 44.3688 129.816 44.3068 129.96 44.2578C130.104 44.2089 130.278 44.1845 130.481 44.1845C130.694 44.1845 130.876 44.2089 131.027 44.2578C131.178 44.3068 131.299 44.3752 131.391 44.4633C131.486 44.5513 131.556 44.6556 131.602 44.7764C131.648 44.8938 131.671 45.0243 131.671 45.1677V46.6548C131.671 46.6906 131.658 46.7199 131.632 46.7428C131.609 46.7658 131.581 46.7771 131.548 46.7771H130.978C130.942 46.7771 130.912 46.7658 130.889 46.7428C130.866 46.7199 130.855 46.6906 130.855 46.6548V46.4836C130.812 46.5456 130.755 46.6025 130.683 46.6548C130.611 46.7071 130.526 46.7477 130.427 46.7771C130.332 46.8098 130.221 46.826 130.093 46.826ZM130.324 46.2683C130.419 46.2683 130.504 46.2488 130.58 46.2096C130.658 46.1671 130.719 46.1035 130.762 46.0189C130.807 45.9308 130.83 45.8217 130.83 45.6911V45.6226L130.413 45.696C130.258 45.722 130.145 45.763 130.073 45.8183C130.005 45.8706 129.97 45.9323 129.97 46.0042C129.97 46.0595 129.986 46.1069 130.019 46.146C130.052 46.1852 130.095 46.2161 130.147 46.239C130.199 46.2586 130.258 46.2683 130.324 46.2683ZM133.449 46.7771C133.413 46.7771 133.384 46.7658 133.361 46.7428C133.338 46.7199 133.327 46.6906 133.327 46.6548V43.4752C133.327 43.4394 133.338 43.41 133.361 43.3871C133.384 43.3642 133.413 43.3529 133.449 43.3529H134.084C134.12 43.3529 134.149 43.3642 134.172 43.3871C134.195 43.41 134.207 43.4394 134.207 43.4752V44.6541H134.506L135.234 43.4458C135.25 43.4198 135.273 43.3984 135.303 43.3822C135.332 43.3627 135.37 43.3529 135.416 43.3529H136.124C136.156 43.3529 136.183 43.3642 136.202 43.3871C136.222 43.4067 136.232 43.4296 136.232 43.4556C136.232 43.4752 136.225 43.4947 136.212 43.5143L135.298 45.0014L136.301 46.6108C136.311 46.6239 136.315 46.6416 136.315 46.6646C136.315 46.6973 136.304 46.7248 136.281 46.7477C136.261 46.7673 136.235 46.7771 136.202 46.7771H135.475C135.422 46.7771 135.383 46.7658 135.357 46.7428C135.334 46.7199 135.316 46.7003 135.303 46.6841L134.541 45.4367H134.207V46.6548C134.207 46.6906 134.195 46.7199 134.172 46.7428C134.149 46.7658 134.12 46.7771 134.084 46.7771H133.449ZM137.486 46.826C137.309 46.826 137.15 46.7933 137.009 46.7282C136.872 46.6597 136.762 46.5683 136.68 46.4542C136.598 46.3402 136.557 46.2112 136.557 46.0678C136.557 45.8363 136.652 45.6535 136.842 45.5199C137.032 45.3829 137.285 45.29 137.599 45.2411L138.214 45.1481V45.0796C138.214 44.9622 138.189 44.8727 138.14 44.8106C138.091 44.7485 138.001 44.7177 137.87 44.7177C137.778 44.7177 137.702 44.7357 137.643 44.7715C137.588 44.8072 137.544 44.8562 137.511 44.9182C137.481 44.9607 137.44 44.9818 137.388 44.9818H136.837C136.801 44.9818 136.773 44.972 136.754 44.9525C136.734 44.9295 136.726 44.9035 136.729 44.8742C136.729 44.8155 136.751 44.7485 136.793 44.6736C136.839 44.5954 136.908 44.5186 136.999 44.4437C137.091 44.3688 137.209 44.3068 137.353 44.2578C137.498 44.2089 137.671 44.1845 137.874 44.1845C138.088 44.1845 138.27 44.2089 138.42 44.2578C138.571 44.3068 138.692 44.3752 138.784 44.4633C138.879 44.5513 138.95 44.6556 138.995 44.7764C139.041 44.8938 139.064 45.0243 139.064 45.1677V46.6548C139.064 46.6906 139.051 46.7199 139.025 46.7428C139.002 46.7658 138.974 46.7771 138.941 46.7771H138.371C138.335 46.7771 138.306 46.7658 138.283 46.7428C138.26 46.7199 138.248 46.6906 138.248 46.6548V46.4836C138.206 46.5456 138.148 46.6025 138.076 46.6548C138.004 46.7071 137.919 46.7477 137.82 46.7771C137.725 46.8098 137.614 46.826 137.486 46.826ZM137.717 46.2683C137.812 46.2683 137.898 46.2488 137.973 46.2096C138.051 46.1671 138.112 46.1035 138.155 46.0189C138.201 45.9308 138.224 45.8217 138.224 45.6911V45.6226L137.806 45.696C137.652 45.722 137.539 45.763 137.466 45.8183C137.398 45.8706 137.363 45.9323 137.363 46.0042C137.363 46.0595 137.38 46.1069 137.412 46.146C137.445 46.1852 137.488 46.2161 137.54 46.239C137.593 46.2586 137.652 46.2683 137.717 46.2683ZM141.241 46.7771C141.205 46.7771 141.176 46.7658 141.153 46.7428C141.13 46.7199 141.118 46.6906 141.118 46.6548V45.9112C141.043 45.9699 140.948 46.0155 140.833 46.0482C140.718 46.0776 140.589 46.0922 140.445 46.0922C140.14 46.0922 139.904 46.014 139.737 45.8574C139.573 45.7009 139.491 45.4499 139.491 45.1041V44.3557C139.491 44.3199 139.503 44.2906 139.526 44.2676C139.548 44.2447 139.578 44.2334 139.614 44.2334H140.214C140.25 44.2334 140.279 44.2447 140.302 44.2676C140.325 44.2906 140.337 44.3199 140.337 44.3557V45.065C140.337 45.179 140.364 45.2606 140.42 45.3096C140.476 45.3551 140.569 45.378 140.701 45.378C140.822 45.378 140.922 45.36 141 45.3242C141.079 45.2851 141.118 45.2264 141.118 45.1481V44.3557C141.118 44.3199 141.13 44.2906 141.153 44.2676C141.176 44.2447 141.205 44.2334 141.241 44.2334H141.871C141.907 44.2334 141.936 44.2447 141.959 44.2676C141.982 44.2906 141.993 44.3199 141.993 44.3557V46.6548C141.993 46.6906 141.982 46.7199 141.959 46.7428C141.936 46.7658 141.907 46.7771 141.871 46.7771H141.241ZM143.775 46.826C143.389 46.826 143.081 46.7217 142.851 46.5129C142.622 46.3041 142.502 45.9944 142.492 45.5835C142.492 45.5606 142.492 45.5312 142.492 45.4954C142.492 45.4597 142.492 45.4319 142.492 45.4123C142.502 45.1546 142.559 44.9344 142.664 44.7519C142.772 44.566 142.92 44.4257 143.107 44.3312C143.297 44.2334 143.518 44.1845 143.77 44.1845C144.059 44.1845 144.296 44.2416 144.483 44.3557C144.673 44.4697 144.816 44.6247 144.911 44.8204C145.006 45.0161 145.053 45.2395 145.053 45.4906V45.608C145.053 45.6437 145.041 45.6731 145.014 45.696C144.991 45.7189 144.963 45.7302 144.931 45.7302H143.357C143.357 45.7336 143.357 45.7385 143.357 45.7449C143.357 45.7513 143.357 45.7581 143.357 45.7645C143.361 45.859 143.377 45.9455 143.407 46.0238C143.436 46.102 143.482 46.1641 143.544 46.2096C143.607 46.2552 143.682 46.2781 143.77 46.2781C143.836 46.2781 143.89 46.2683 143.933 46.2488C143.979 46.2258 144.016 46.2014 144.046 46.1754C144.075 46.146 144.098 46.1216 144.114 46.102C144.144 46.0693 144.167 46.0497 144.183 46.0433C144.203 46.0335 144.232 46.0286 144.272 46.0286H144.881C144.914 46.0286 144.94 46.0384 144.96 46.058C144.983 46.0742 144.993 46.0987 144.99 46.1314C144.986 46.1867 144.958 46.2537 144.906 46.3319C144.854 46.4102 144.777 46.4885 144.675 46.5667C144.577 46.6416 144.452 46.7037 144.301 46.7526C144.151 46.8015 143.975 46.826 143.775 46.826ZM143.357 45.246H144.188V45.2362C144.188 45.1319 144.172 45.0405 144.139 44.9622C144.11 44.884 144.062 44.8238 143.996 44.7813C143.934 44.7388 143.859 44.7177 143.77 44.7177C143.682 44.7177 143.607 44.7388 143.544 44.7813C143.485 44.8238 143.439 44.884 143.407 44.9622C143.374 45.0405 143.357 45.1319 143.357 45.2362V45.246ZM146.689 46.826C146.447 46.826 146.232 46.782 146.045 46.6939C145.858 46.6059 145.709 46.4787 145.598 46.3124C145.49 46.1427 145.431 45.9406 145.421 45.7058C145.418 45.6535 145.416 45.5884 145.416 45.5101C145.416 45.4285 145.418 45.3618 145.421 45.3096C145.431 45.0714 145.49 44.8693 145.598 44.703C145.706 44.5333 145.854 44.4046 146.04 44.3165C146.231 44.2285 146.447 44.1845 146.689 44.1845C146.915 44.1845 147.109 44.2172 147.269 44.2823C147.43 44.3444 147.561 44.4226 147.663 44.5171C147.764 44.6116 147.84 44.7094 147.889 44.8106C147.941 44.9084 147.969 44.995 147.972 45.0699C147.976 45.1026 147.964 45.1319 147.938 45.1579C147.912 45.1808 147.882 45.1922 147.849 45.1922H147.225C147.189 45.1922 147.161 45.1839 147.142 45.1677C147.122 45.1515 147.104 45.127 147.087 45.0943C147.048 44.9931 146.997 44.9216 146.935 44.8791C146.876 44.8366 146.799 44.8155 146.704 44.8155C146.573 44.8155 146.471 44.858 146.399 44.9427C146.33 45.0274 146.293 45.1579 146.286 45.334C146.283 45.4646 146.283 45.5801 146.286 45.6813C146.293 45.8608 146.33 45.991 146.399 46.0727C146.471 46.1543 146.573 46.195 146.704 46.195C146.806 46.195 146.886 46.1739 146.945 46.1314C147.004 46.0889 147.051 46.0173 147.087 45.9161C147.104 45.8834 147.122 45.859 147.142 45.8428C147.161 45.8266 147.189 45.8183 147.225 45.8183H147.849C147.882 45.8183 147.912 45.8314 147.938 45.8574C147.964 45.8804 147.976 45.9079 147.972 45.9406C147.969 45.9959 147.953 46.0614 147.923 46.1363C147.894 46.2081 147.848 46.2845 147.786 46.3662C147.723 46.4478 147.641 46.5242 147.54 46.5961C147.441 46.6646 147.322 46.7199 147.181 46.7624C147.04 46.8049 146.876 46.826 146.689 46.826ZM149.186 46.7771C149.153 46.7771 149.124 46.7658 149.097 46.7428C149.074 46.7199 149.063 46.6906 149.063 46.6548V44.8742H148.316C148.283 44.8742 148.253 44.8629 148.227 44.84C148.204 44.817 148.193 44.7877 148.193 44.7519V44.3557C148.193 44.3199 148.204 44.2906 148.227 44.2676C148.253 44.2447 148.283 44.2334 148.316 44.2334H150.626C150.659 44.2334 150.687 44.2447 150.71 44.2676C150.736 44.2906 150.749 44.3199 150.749 44.3557V44.7519C150.749 44.7877 150.736 44.817 150.71 44.84C150.687 44.8629 150.659 44.8742 150.626 44.8742H149.879V46.6548C149.879 46.6906 149.867 46.7199 149.845 46.7428C149.822 46.7658 149.792 46.7771 149.756 46.7771H149.186ZM151.23 46.7771C151.194 46.7771 151.165 46.7658 151.142 46.7428C151.119 46.7199 151.107 46.6906 151.107 46.6548V44.3557C151.107 44.3199 151.119 44.2906 151.142 44.2676C151.165 44.2447 151.194 44.2334 151.23 44.2334H152.38C152.771 44.2334 153.054 44.2985 153.231 44.4291C153.411 44.5596 153.501 44.7357 153.501 44.9574C153.501 45.0812 153.477 45.1824 153.428 45.2606C153.378 45.3389 153.313 45.404 153.231 45.4563C153.339 45.5116 153.424 45.5884 153.487 45.6862C153.549 45.7841 153.58 45.8966 153.58 46.0238C153.58 46.2586 153.488 46.4429 153.305 46.5765C153.121 46.7101 152.836 46.7771 152.449 46.7771H151.23ZM151.904 46.2537H152.405C152.507 46.2537 152.589 46.2356 152.651 46.1999C152.713 46.1607 152.744 46.0987 152.744 46.014C152.744 45.9293 152.715 45.8687 152.656 45.833C152.6 45.7938 152.517 45.7743 152.405 45.7743H151.904V46.2537ZM151.904 45.2264H152.395C152.497 45.2264 152.577 45.2068 152.636 45.1677C152.698 45.1252 152.729 45.0634 152.729 44.9818C152.729 44.8971 152.698 44.8384 152.636 44.8057C152.577 44.773 152.497 44.7568 152.395 44.7568H151.904V45.2264ZM154.856 46.826C154.679 46.826 154.52 46.7933 154.379 46.7282C154.241 46.6597 154.131 46.5683 154.049 46.4542C153.967 46.3402 153.927 46.2112 153.927 46.0678C153.927 45.8363 154.021 45.6535 154.212 45.5199C154.402 45.3829 154.654 45.29 154.969 45.2411L155.583 45.1481V45.0796C155.583 44.9622 155.559 44.8727 155.51 44.8106C155.46 44.7485 155.37 44.7177 155.239 44.7177C155.147 44.7177 155.072 44.7357 155.013 44.7715C154.957 44.8072 154.913 44.8562 154.88 44.9182C154.851 44.9607 154.81 44.9818 154.757 44.9818H154.207C154.171 44.9818 154.143 44.972 154.123 44.9525C154.104 44.9295 154.095 44.9035 154.099 44.8742C154.099 44.8155 154.12 44.7485 154.163 44.6736C154.208 44.5954 154.277 44.5186 154.369 44.4437C154.461 44.3688 154.579 44.3068 154.723 44.2578C154.867 44.2089 155.041 44.1845 155.244 44.1845C155.457 44.1845 155.639 44.2089 155.79 44.2578C155.94 44.3068 156.062 44.3752 156.154 44.4633C156.248 44.5513 156.319 44.6556 156.365 44.7764C156.411 44.8938 156.434 45.0243 156.434 45.1677V46.6548C156.434 46.6906 156.421 46.7199 156.394 46.7428C156.371 46.7658 156.343 46.7771 156.311 46.7771H155.741C155.704 46.7771 155.675 46.7658 155.652 46.7428C155.629 46.7199 155.618 46.6906 155.618 46.6548V46.4836C155.575 46.5456 155.518 46.6025 155.446 46.6548C155.373 46.7071 155.288 46.7477 155.19 46.7771C155.095 46.8098 154.983 46.826 154.856 46.826ZM155.087 46.2683C155.182 46.2683 155.267 46.2488 155.342 46.2096C155.421 46.1671 155.482 46.1035 155.524 46.0189C155.57 45.9308 155.593 45.8217 155.593 45.6911V45.6226L155.175 45.696C155.021 45.722 154.908 45.763 154.836 45.8183C154.767 45.8706 154.733 45.9323 154.733 46.0042C154.733 46.0595 154.749 46.1069 154.782 46.146C154.815 46.1852 154.857 46.2161 154.91 46.239C154.962 46.2586 155.021 46.2683 155.087 46.2683Z" fill="#FF3838"/>
<path d="M60.4038 9.89111C55.0158 9.89111 50.7683 11.8478 48.0547 15.3698L53.9146 20.5746C55.5271 18.5397 57.4541 17.3657 59.9318 17.3657C62.4488 17.3657 64.2973 18.6571 65.2018 20.8094H56.6676V27.4622H65.2411C64.3759 29.7319 62.5275 31.0625 59.9318 31.0625C57.4541 31.0625 55.5271 29.8885 53.9146 27.8535L48.0547 33.0583C50.7683 36.5803 55.0158 38.537 60.4038 38.537C69.056 38.537 75.1518 32.6278 75.1518 24.2141C75.1518 15.8003 69.056 9.89111 60.4038 9.89111ZM101.615 10.5173H76.3667V17.6787H84.429V37.9109H93.5532V17.6787H101.615V10.5173ZM118.136 38.537C123.524 38.537 127.771 36.5803 130.485 33.0583L124.625 27.8535C123.012 29.8885 121.085 31.0625 118.608 31.0625C114.754 31.0625 112.158 28.4014 112.158 24.2141C112.158 20.0268 114.754 17.3657 118.608 17.3657C121.085 17.3657 123.012 18.5397 124.625 20.5746L130.485 15.3698C127.771 11.8478 123.524 9.89111 118.136 9.89111C109.287 9.89111 102.798 15.8003 102.798 24.2141C102.798 32.6278 109.287 38.537 118.136 38.537ZM160.701 10.5173H151.026L145.166 20.7312H142.335V10.5173H133.053V37.9109H142.335V28.01H144.93L150.2 37.9109H160.662L152.521 23.8227L160.701 10.5173Z" fill="#FF3838"/>
<path d="M13.4139 37.7605C13.4131 37.7598 13.4123 37.7591 13.4115 37.7584M13.4139 37.7605L13.4115 37.7584M13.4139 37.7605L11.3928 40.2323M13.4139 37.7605L11.3928 40.2323M13.4115 37.7584L11.3928 40.2323M13.4115 37.7584C12.6531 37.125 11.9629 36.4282 11.3451 35.6744L10.069 36.6939L10.997 37.0861L10.6775 37.8421C10.632 37.9514 10.5899 38.0575 10.5509 38.1603C10.5406 38.1873 10.5306 38.214 10.5208 38.2406C10.3867 38.6033 10.2929 38.9219 10.2312 39.1863C10.4941 39.445 10.762 39.6932 11.0298 39.926C11.04 39.9349 11.0501 39.9437 11.0603 39.9524C11.1713 40.0485 11.2822 40.1419 11.3928 40.2323M8.38039 30.0111C8.21956 29.4613 8.08471 28.8978 7.97658 28.3217M8.38039 30.0111L7.94164 23.1488C7.70574 24.5398 7.72322 26.9741 7.97658 28.3217M8.38039 30.0111L7.30872 28.4472L7.97658 28.3217M7.97658 28.3217L7.30859 28.447M11.3344 35.6613L10.0604 36.6902L8.33116 35.9594L8.32725 35.9577L8.07309 35.8503C8.24668 35.4811 8.44264 35.0933 8.66273 34.6871L8.66656 34.68L8.67036 34.673L8.73361 34.5551L9.1509 33.7775L9.5741 32.9888C9.70077 33.232 9.83341 33.4712 9.97195 33.7065C10.1292 33.9735 10.2941 34.2354 10.4664 34.4918C10.4699 34.4971 10.4735 34.5024 10.477 34.5077C10.745 34.9055 11.0309 35.2902 11.3344 35.6613Z" fill="#0D51FF" stroke="black" stroke-width="8"/>
<path d="M13.7956 16.4196C13.2277 16.6892 12.2404 18.0367 11.4803 19.5408C10.3445 21.7925 9.82898 24.5311 10.0823 26.8871C10.3008 28.878 10.5542 29.5475 11.2269 29.8865C11.6638 30.1126 12.2055 30.1039 12.686 29.8778C13.4199 29.5214 13.6646 28.878 13.4461 27.8782C13.2539 26.9914 13.184 25.044 13.3151 24.1485C13.5685 22.4532 14.2936 20.7231 15.3072 19.393C15.8488 18.6801 16.111 18.2019 16.1197 17.8889C16.1197 17.576 15.9187 17.0804 15.6566 16.7848C15.1586 16.2197 14.4596 16.0806 13.7956 16.4196Z" fill="#3BB1E3"/>
<path d="M37.744 6.38691C36.4508 6.56078 34.3802 7.16937 32.7288 7.8562C32.2307 8.06483 31.7766 8.23873 31.7154 8.23873C31.6543 8.23873 31.4183 8.15178 31.1824 8.04746C30.3174 7.66493 28.7098 7.17805 27.4778 6.92594C26.3595 6.6912 25.9838 6.65641 24.28 6.61297C22.7423 6.57817 22.1307 6.59557 21.2308 6.71728C13.3761 7.76925 7.07667 13.3681 5.10208 21.0361C4.29825 24.1834 4.44678 28.5042 5.45155 31.3905L5.62632 31.8861L5.14577 32.7816C2.9178 36.8937 2.34988 40.2583 3.51193 42.4317C4.0711 43.4838 5.40786 44.4575 6.72717 44.7966C8.45712 45.2313 11.9869 44.6315 14.7129 43.4229L15.7089 42.9882L16.1108 43.1447C17.3777 43.6403 19.1252 44.1707 20.1911 44.3707C21.1609 44.5532 21.755 44.6055 23.1617 44.64C25.7654 44.7097 27.4254 44.4749 29.7495 43.71C35.5859 41.8059 40.0856 37.2765 41.9727 31.3994C42.6106 29.4345 42.8552 27.8 42.8552 25.5831C42.8552 23.54 42.5931 21.749 42.0514 20.0624L41.8415 19.4104L42.5144 18.1063C43.5542 16.0893 44.1831 14.3766 44.4277 12.8204C44.5939 11.8032 44.5063 10.2557 44.2357 9.5254C43.6414 7.92575 42.3396 6.8216 40.6273 6.45646C40.0592 6.33475 38.3991 6.29999 37.744 6.38691ZM40.4786 9.75146C41.169 10.1079 41.4572 10.9338 41.2999 12.0641C41.1776 12.8986 40.8543 13.9854 40.4525 14.9591L40.1292 15.7242L39.6051 14.9591C38.5478 13.4203 37.0536 11.7858 35.8044 10.8121C35.4986 10.5774 35.2538 10.36 35.2538 10.3253C35.2538 10.2644 36.0489 10.0123 37.0887 9.76015C38.2593 9.46456 39.9108 9.46456 40.4786 9.75146ZM26.4294 9.96881C28.867 10.3948 30.99 11.2816 33.0695 12.7422C34.1268 13.4812 35.918 15.2634 36.6518 16.298C37.2635 17.1587 38.2246 18.8105 38.2246 19.0018C38.2246 19.0626 37.9013 19.5669 37.5081 20.132C35.3149 23.2618 33.1131 25.8439 30.3087 28.5825C26.9099 31.895 23.8869 34.3641 20.4794 36.5984C18.9417 37.6155 16.3904 39.1368 15.9448 39.3019C15.7352 39.3802 15.6303 39.3457 14.975 38.9109C11.2617 36.5027 8.81535 32.7905 7.97658 28.3217C7.72322 26.9741 7.70574 24.5398 7.94164 23.1488C9.13864 15.985 14.8178 10.6296 22.0695 9.8123C23.1442 9.69059 25.2586 9.76886 26.4294 9.96881ZM39.6398 24.392C40.0156 28.8346 38.408 33.3295 35.2538 36.6158C31.3833 40.6496 25.7828 42.3275 20.226 41.1278C19.6319 40.9972 19.5882 40.9801 19.7455 40.867C19.8416 40.7973 20.5493 40.3454 21.3182 39.8498C27.6176 35.842 33.6548 30.3647 38.338 24.4007C38.9236 23.653 39.4302 23.0705 39.4653 23.0966C39.5 23.1314 39.5786 23.7052 39.6398 24.392ZM8.85031 37.6675C9.6017 38.5978 10.5104 39.5108 11.3928 40.2323C11.8296 40.5888 12.1879 40.9018 12.1879 40.9364C12.1879 40.9627 11.8471 41.0929 11.419 41.2146C8.88525 41.9799 6.91939 41.8927 6.38643 41.0061C5.89716 40.18 6.13307 38.3456 6.98929 36.2938L7.31258 35.5289L7.83678 36.2938C8.1251 36.72 8.57944 37.3284 8.85031 37.6675Z" fill="#3BB1E3"/>
</svg>
