<svg width="524" height="157" viewBox="0 0 524 157" fill="none" xmlns="http://www.w3.org/2000/svg">
<path d="M173.595 153.16C172.752 153.16 171.984 153.043 171.291 152.808C170.608 152.563 170.054 152.211 169.627 151.752C169.2 151.293 168.95 150.733 168.875 150.072C168.864 149.976 168.891 149.896 168.955 149.832C169.03 149.768 169.115 149.736 169.211 149.736H171.291C171.419 149.736 171.515 149.757 171.579 149.8C171.643 149.843 171.707 149.917 171.771 150.024C171.878 150.269 172.07 150.472 172.347 150.632C172.635 150.792 173.03 150.872 173.531 150.872C174.15 150.872 174.63 150.685 174.971 150.312C175.323 149.939 175.499 149.411 175.499 148.728V148.472H172.395C172.278 148.472 172.182 148.429 172.107 148.344C172.032 148.259 171.995 148.157 171.995 148.04V146.76C171.995 146.643 172.032 146.541 172.107 146.456C172.182 146.371 172.278 146.328 172.395 146.328H175.499V146.104C175.499 145.357 175.328 144.813 174.987 144.472C174.646 144.12 174.16 143.944 173.531 143.944C173.03 143.944 172.635 144.029 172.347 144.2C172.07 144.371 171.894 144.573 171.819 144.808C171.755 144.915 171.696 144.989 171.643 145.032C171.59 145.075 171.499 145.096 171.371 145.096H169.275C169.179 145.096 169.094 145.064 169.019 145C168.944 144.925 168.912 144.84 168.923 144.744C169.008 144.051 169.264 143.475 169.691 143.016C170.118 142.557 170.667 142.216 171.339 141.992C172.011 141.757 172.763 141.64 173.595 141.64C174.534 141.64 175.36 141.805 176.075 142.136C176.8 142.456 177.371 142.952 177.787 143.624C178.214 144.285 178.443 145.139 178.475 146.184C178.486 146.515 178.491 146.803 178.491 147.048C178.502 147.283 178.502 147.523 178.491 147.768C178.491 148.003 178.486 148.285 178.475 148.616C178.443 149.672 178.219 150.536 177.803 151.208C177.387 151.88 176.822 152.376 176.107 152.696C175.392 153.005 174.555 153.16 173.595 153.16ZM180.066 153C179.959 153 179.863 152.963 179.778 152.888C179.703 152.803 179.666 152.707 179.666 152.6V151.192C179.666 150.957 179.794 150.824 180.05 150.792C180.359 150.76 180.594 150.616 180.754 150.36C180.914 150.104 181.026 149.725 181.09 149.224C181.154 148.723 181.186 148.093 181.186 147.336V145.08C181.186 144.963 181.223 144.867 181.298 144.792C181.383 144.717 181.479 144.68 181.586 144.68H187.858C187.975 144.68 188.071 144.717 188.146 144.792C188.22 144.867 188.258 144.963 188.258 145.08V152.6C188.258 152.717 188.22 152.813 188.146 152.888C188.071 152.963 187.975 153 187.858 153H185.97C185.863 153 185.767 152.963 185.682 152.888C185.607 152.813 185.57 152.717 185.57 152.6V146.776H183.746V147.624C183.746 148.648 183.692 149.507 183.586 150.2C183.479 150.893 183.287 151.443 183.01 151.848C182.732 152.253 182.354 152.547 181.874 152.728C181.394 152.909 180.791 153 180.066 153ZM194.05 153.16C192.791 153.16 191.788 152.819 191.042 152.136C190.295 151.453 189.906 150.44 189.874 149.096C189.874 149.021 189.874 148.925 189.874 148.808C189.874 148.691 189.874 148.6 189.874 148.536C189.906 147.693 190.092 146.973 190.434 146.376C190.786 145.768 191.266 145.309 191.874 145C192.492 144.68 193.212 144.52 194.034 144.52C194.972 144.52 195.746 144.707 196.354 145.08C196.972 145.453 197.436 145.96 197.746 146.6C198.055 147.24 198.21 147.971 198.21 148.792V149.176C198.21 149.293 198.167 149.389 198.082 149.464C198.007 149.539 197.916 149.576 197.81 149.576H192.69C192.69 149.587 192.69 149.603 192.69 149.624C192.69 149.645 192.69 149.667 192.69 149.688C192.7 149.997 192.754 150.28 192.85 150.536C192.946 150.792 193.095 150.995 193.298 151.144C193.5 151.293 193.746 151.368 194.034 151.368C194.247 151.368 194.423 151.336 194.562 151.272C194.711 151.197 194.834 151.117 194.93 151.032C195.026 150.936 195.1 150.856 195.154 150.792C195.25 150.685 195.324 150.621 195.378 150.6C195.442 150.568 195.538 150.552 195.666 150.552H197.65C197.756 150.552 197.842 150.584 197.906 150.648C197.98 150.701 198.012 150.781 198.002 150.888C197.991 151.069 197.9 151.288 197.73 151.544C197.559 151.8 197.308 152.056 196.978 152.312C196.658 152.557 196.252 152.76 195.762 152.92C195.271 153.08 194.7 153.16 194.05 153.16ZM192.69 147.992H195.394V147.96C195.394 147.619 195.34 147.32 195.234 147.064C195.138 146.808 194.983 146.611 194.77 146.472C194.567 146.333 194.322 146.264 194.034 146.264C193.746 146.264 193.5 146.333 193.298 146.472C193.106 146.611 192.956 146.808 192.85 147.064C192.743 147.32 192.69 147.619 192.69 147.96V147.992ZM200.11 153C199.992 153 199.896 152.963 199.822 152.888C199.747 152.813 199.71 152.717 199.71 152.6V145.08C199.71 144.963 199.747 144.867 199.822 144.792C199.896 144.717 199.992 144.68 200.11 144.68H201.95C202.067 144.68 202.163 144.717 202.238 144.792C202.312 144.867 202.35 144.963 202.35 145.08V147.736H203.214L204.958 144.936C204.99 144.883 205.043 144.829 205.118 144.776C205.192 144.712 205.288 144.68 205.406 144.68H207.454C207.55 144.68 207.63 144.712 207.694 144.776C207.768 144.829 207.806 144.904 207.806 145C207.806 145.032 207.795 145.069 207.774 145.112C207.763 145.155 207.747 145.192 207.726 145.224L205.534 148.712L208.094 152.472C208.136 152.536 208.158 152.605 208.158 152.68C208.158 152.776 208.126 152.856 208.062 152.92C207.998 152.973 207.912 153 207.806 153H205.55C205.432 153 205.336 152.979 205.262 152.936C205.198 152.883 205.139 152.819 205.086 152.744L203.182 149.832H202.35V152.6C202.35 152.717 202.312 152.813 202.238 152.888C202.163 152.963 202.067 153 201.95 153H200.11ZM211.925 153C211.818 153 211.722 152.963 211.637 152.888C211.562 152.813 211.525 152.717 211.525 152.6V146.776H209.093C208.986 146.776 208.89 146.739 208.805 146.664C208.73 146.589 208.693 146.493 208.693 146.376V145.08C208.693 144.963 208.73 144.867 208.805 144.792C208.89 144.717 208.986 144.68 209.093 144.68H216.613C216.719 144.68 216.81 144.717 216.885 144.792C216.97 144.867 217.013 144.963 217.013 145.08V146.376C217.013 146.493 216.97 146.589 216.885 146.664C216.81 146.739 216.719 146.776 216.613 146.776H214.181V152.6C214.181 152.717 214.143 152.813 214.069 152.888C213.994 152.963 213.898 153 213.781 153H211.925ZM218.578 156.04C218.461 156.04 218.365 156.003 218.29 155.928C218.216 155.853 218.178 155.757 218.178 155.64V145.08C218.178 144.963 218.216 144.867 218.29 144.792C218.365 144.717 218.461 144.68 218.578 144.68H220.386C220.493 144.68 220.584 144.717 220.658 144.792C220.744 144.867 220.786 144.963 220.786 145.08V145.672C221.032 145.341 221.357 145.069 221.762 144.856C222.168 144.632 222.669 144.52 223.266 144.52C223.8 144.52 224.269 144.605 224.674 144.776C225.08 144.936 225.426 145.176 225.714 145.496C226.002 145.816 226.226 146.205 226.386 146.664C226.557 147.123 226.653 147.651 226.674 148.248C226.685 148.461 226.69 148.659 226.69 148.84C226.69 149.021 226.685 149.219 226.674 149.432C226.653 150.008 226.562 150.525 226.402 150.984C226.242 151.443 226.018 151.832 225.73 152.152C225.442 152.472 225.09 152.723 224.674 152.904C224.269 153.075 223.8 153.16 223.266 153.16C222.744 153.16 222.285 153.069 221.89 152.888C221.506 152.696 221.186 152.429 220.93 152.088V155.64C220.93 155.757 220.893 155.853 220.818 155.928C220.744 156.003 220.648 156.04 220.53 156.04H218.578ZM222.402 151.016C222.765 151.016 223.048 150.941 223.25 150.792C223.453 150.643 223.597 150.44 223.682 150.184C223.778 149.928 223.837 149.645 223.858 149.336C223.88 149.005 223.88 148.675 223.858 148.344C223.837 148.035 223.778 147.752 223.682 147.496C223.597 147.24 223.453 147.037 223.25 146.888C223.048 146.739 222.765 146.664 222.402 146.664C222.05 146.664 221.768 146.744 221.554 146.904C221.341 147.053 221.186 147.251 221.09 147.496C220.994 147.741 220.941 148.008 220.93 148.296C220.92 148.499 220.914 148.696 220.914 148.888C220.914 149.08 220.92 149.283 220.93 149.496C220.941 149.763 221 150.013 221.106 150.248C221.213 150.472 221.373 150.659 221.586 150.808C221.8 150.947 222.072 151.016 222.402 151.016ZM232.208 153.16C231.312 153.16 230.555 153.016 229.936 152.728C229.328 152.44 228.859 152.029 228.528 151.496C228.208 150.952 228.027 150.307 227.984 149.56C227.973 149.347 227.968 149.107 227.968 148.84C227.968 148.563 227.973 148.323 227.984 148.12C228.027 147.363 228.219 146.717 228.56 146.184C228.901 145.651 229.376 145.24 229.984 144.952C230.603 144.664 231.344 144.52 232.208 144.52C233.083 144.52 233.824 144.664 234.432 144.952C235.051 145.24 235.531 145.651 235.872 146.184C236.213 146.717 236.405 147.363 236.448 148.12C236.459 148.323 236.464 148.563 236.464 148.84C236.464 149.107 236.459 149.347 236.448 149.56C236.405 150.307 236.219 150.952 235.888 151.496C235.568 152.029 235.099 152.44 234.48 152.728C233.872 153.016 233.115 153.16 232.208 153.16ZM232.208 151.208C232.688 151.208 233.035 151.064 233.248 150.776C233.472 150.488 233.6 150.056 233.632 149.48C233.643 149.32 233.648 149.107 233.648 148.84C233.648 148.573 233.643 148.36 233.632 148.2C233.6 147.635 233.472 147.208 233.248 146.92C233.035 146.621 232.688 146.472 232.208 146.472C231.739 146.472 231.392 146.621 231.168 146.92C230.944 147.208 230.821 147.635 230.8 148.2C230.789 148.36 230.784 148.573 230.784 148.84C230.784 149.107 230.789 149.32 230.8 149.48C230.821 150.056 230.944 150.488 231.168 150.776C231.392 151.064 231.739 151.208 232.208 151.208ZM238.438 153C238.32 153 238.224 152.963 238.15 152.888C238.075 152.813 238.038 152.717 238.038 152.6V145.08C238.038 144.963 238.075 144.867 238.15 144.792C238.224 144.717 238.32 144.68 238.438 144.68H240.326C240.432 144.68 240.523 144.717 240.598 144.792C240.683 144.867 240.726 144.963 240.726 145.08V147.736H243.606V145.08C243.606 144.963 243.643 144.867 243.718 144.792C243.792 144.717 243.888 144.68 244.006 144.68H245.894C246 144.68 246.091 144.717 246.166 144.792C246.251 144.867 246.294 144.963 246.294 145.08V152.6C246.294 152.717 246.251 152.813 246.166 152.888C246.091 152.963 246 153 245.894 153H244.006C243.888 153 243.792 152.963 243.718 152.888C243.643 152.813 243.606 152.717 243.606 152.6V149.832H240.726V152.6C240.726 152.717 240.683 152.813 240.598 152.888C240.523 152.963 240.432 153 240.326 153H238.438ZM248.641 153C248.524 153 248.428 152.963 248.353 152.888C248.278 152.813 248.241 152.717 248.241 152.6V145.08C248.241 144.963 248.278 144.867 248.353 144.792C248.428 144.717 248.524 144.68 248.641 144.68H250.529C250.636 144.68 250.726 144.717 250.801 144.792C250.886 144.867 250.929 144.963 250.929 145.08V147.736H253.809V145.08C253.809 144.963 253.846 144.867 253.921 144.792C253.996 144.717 254.092 144.68 254.209 144.68H256.097C256.204 144.68 256.294 144.717 256.369 144.792C256.454 144.867 256.497 144.963 256.497 145.08V152.6C256.497 152.717 256.454 152.813 256.369 152.888C256.294 152.963 256.204 153 256.097 153H254.209C254.092 153 253.996 152.963 253.921 152.888C253.846 152.813 253.809 152.717 253.809 152.6V149.832H250.929V152.6C250.929 152.717 250.886 152.813 250.801 152.888C250.726 152.963 250.636 153 250.529 153H248.641ZM260.94 153.16C260.364 153.16 259.847 153.053 259.388 152.84C258.94 152.616 258.583 152.317 258.316 151.944C258.049 151.571 257.916 151.149 257.916 150.68C257.916 149.923 258.225 149.325 258.844 148.888C259.463 148.44 260.284 148.136 261.308 147.976L263.308 147.672V147.448C263.308 147.064 263.228 146.771 263.068 146.568C262.908 146.365 262.615 146.264 262.188 146.264C261.889 146.264 261.644 146.323 261.452 146.44C261.271 146.557 261.127 146.717 261.02 146.92C260.924 147.059 260.791 147.128 260.62 147.128H258.828C258.711 147.128 258.62 147.096 258.556 147.032C258.492 146.957 258.465 146.872 258.476 146.776C258.476 146.584 258.545 146.365 258.684 146.12C258.833 145.864 259.057 145.613 259.356 145.368C259.655 145.123 260.039 144.92 260.508 144.76C260.977 144.6 261.543 144.52 262.204 144.52C262.897 144.52 263.489 144.6 263.98 144.76C264.471 144.92 264.865 145.144 265.164 145.432C265.473 145.72 265.703 146.061 265.852 146.456C266.001 146.84 266.076 147.267 266.076 147.736V152.6C266.076 152.717 266.033 152.813 265.948 152.888C265.873 152.963 265.783 153 265.676 153H263.82C263.703 153 263.607 152.963 263.532 152.888C263.457 152.813 263.42 152.717 263.42 152.6V152.04C263.281 152.243 263.095 152.429 262.86 152.6C262.625 152.771 262.348 152.904 262.028 153C261.719 153.107 261.356 153.16 260.94 153.16ZM261.692 151.336C262.001 151.336 262.279 151.272 262.524 151.144C262.78 151.005 262.977 150.797 263.116 150.52C263.265 150.232 263.34 149.875 263.34 149.448V149.224L261.98 149.464C261.479 149.549 261.111 149.683 260.876 149.864C260.652 150.035 260.54 150.237 260.54 150.472C260.54 150.653 260.593 150.808 260.7 150.936C260.807 151.064 260.945 151.165 261.116 151.24C261.287 151.304 261.479 151.336 261.692 151.336ZM273.242 153C273.124 153 273.028 152.963 272.954 152.888C272.879 152.813 272.842 152.717 272.842 152.6V150.328H271.498V150.248C270.367 150.248 269.503 150.003 268.906 149.512C268.308 149.011 268.01 148.333 268.01 147.48C268.01 146.563 268.308 145.869 268.906 145.4C269.503 144.92 270.335 144.68 271.402 144.68H275.194C275.311 144.68 275.407 144.717 275.482 144.792C275.556 144.867 275.594 144.963 275.594 145.08V152.6C275.594 152.717 275.556 152.813 275.482 152.888C275.407 152.963 275.311 153 275.194 153H273.242ZM268.074 153C267.967 153 267.882 152.968 267.818 152.904C267.754 152.84 267.722 152.765 267.722 152.68C267.722 152.648 267.727 152.616 267.738 152.584C267.759 152.541 267.78 152.499 267.802 152.456L269.514 149.64L271.85 150.04L270.362 152.76C270.319 152.824 270.266 152.883 270.202 152.936C270.138 152.979 270.063 153 269.978 153H268.074ZM271.498 148.488H272.89V146.52H271.562C271.167 146.52 270.874 146.595 270.682 146.744C270.5 146.893 270.41 147.139 270.41 147.48C270.41 147.779 270.495 148.024 270.666 148.216C270.847 148.397 271.124 148.488 271.498 148.488ZM283.984 153C283.867 153 283.771 152.963 283.696 152.888C283.621 152.813 283.584 152.717 283.584 152.6V144.312H280.736C280.619 144.312 280.523 144.275 280.448 144.2C280.373 144.115 280.336 144.019 280.336 143.912V142.2C280.336 142.083 280.373 141.987 280.448 141.912C280.523 141.837 280.619 141.8 280.736 141.8H289.344C289.461 141.8 289.557 141.837 289.632 141.912C289.707 141.987 289.744 142.083 289.744 142.2V143.912C289.744 144.019 289.707 144.115 289.632 144.2C289.557 144.275 289.461 144.312 289.344 144.312H286.496V152.6C286.496 152.717 286.459 152.813 286.384 152.888C286.309 152.963 286.213 153 286.096 153H283.984ZM294.958 153.16C294.062 153.16 293.305 153.016 292.686 152.728C292.078 152.44 291.609 152.029 291.278 151.496C290.958 150.952 290.777 150.307 290.734 149.56C290.723 149.347 290.718 149.107 290.718 148.84C290.718 148.563 290.723 148.323 290.734 148.12C290.777 147.363 290.969 146.717 291.31 146.184C291.651 145.651 292.126 145.24 292.734 144.952C293.353 144.664 294.094 144.52 294.958 144.52C295.833 144.52 296.574 144.664 297.182 144.952C297.801 145.24 298.281 145.651 298.622 146.184C298.963 146.717 299.155 147.363 299.198 148.12C299.209 148.323 299.214 148.563 299.214 148.84C299.214 149.107 299.209 149.347 299.198 149.56C299.155 150.307 298.969 150.952 298.638 151.496C298.318 152.029 297.849 152.44 297.23 152.728C296.622 153.016 295.865 153.16 294.958 153.16ZM294.958 151.208C295.438 151.208 295.785 151.064 295.998 150.776C296.222 150.488 296.35 150.056 296.382 149.48C296.393 149.32 296.398 149.107 296.398 148.84C296.398 148.573 296.393 148.36 296.382 148.2C296.35 147.635 296.222 147.208 295.998 146.92C295.785 146.621 295.438 146.472 294.958 146.472C294.489 146.472 294.142 146.621 293.918 146.92C293.694 147.208 293.571 147.635 293.55 148.2C293.539 148.36 293.534 148.573 293.534 148.84C293.534 149.107 293.539 149.32 293.55 149.48C293.571 150.056 293.694 150.488 293.918 150.776C294.142 151.064 294.489 151.208 294.958 151.208ZM301.188 156.04C301.07 156.04 300.974 156.003 300.9 155.928C300.825 155.853 300.788 155.757 300.788 155.64V145.08C300.788 144.963 300.825 144.867 300.9 144.792C300.974 144.717 301.07 144.68 301.188 144.68H302.996C303.102 144.68 303.193 144.717 303.268 144.792C303.353 144.867 303.396 144.963 303.396 145.08V145.672C303.641 145.341 303.966 145.069 304.372 144.856C304.777 144.632 305.278 144.52 305.876 144.52C306.409 144.52 306.878 144.605 307.284 144.776C307.689 144.936 308.036 145.176 308.324 145.496C308.612 145.816 308.836 146.205 308.996 146.664C309.166 147.123 309.262 147.651 309.284 148.248C309.294 148.461 309.3 148.659 309.3 148.84C309.3 149.021 309.294 149.219 309.284 149.432C309.262 150.008 309.172 150.525 309.012 150.984C308.852 151.443 308.628 151.832 308.34 152.152C308.052 152.472 307.7 152.723 307.284 152.904C306.878 153.075 306.409 153.16 305.876 153.16C305.353 153.16 304.894 153.069 304.5 152.888C304.116 152.696 303.796 152.429 303.54 152.088V155.64C303.54 155.757 303.502 155.853 303.428 155.928C303.353 156.003 303.257 156.04 303.14 156.04H301.188ZM305.012 151.016C305.374 151.016 305.657 150.941 305.86 150.792C306.062 150.643 306.206 150.44 306.292 150.184C306.388 149.928 306.446 149.645 306.468 149.336C306.489 149.005 306.489 148.675 306.468 148.344C306.446 148.035 306.388 147.752 306.292 147.496C306.206 147.24 306.062 147.037 305.86 146.888C305.657 146.739 305.374 146.664 305.012 146.664C304.66 146.664 304.377 146.744 304.164 146.904C303.95 147.053 303.796 147.251 303.7 147.496C303.604 147.741 303.55 148.008 303.54 148.296C303.529 148.499 303.524 148.696 303.524 148.888C303.524 149.08 303.529 149.283 303.54 149.496C303.55 149.763 303.609 150.013 303.716 150.248C303.822 150.472 303.982 150.659 304.196 150.808C304.409 150.947 304.681 151.016 305.012 151.016ZM311.282 153C311.164 153 311.068 152.963 310.993 152.888C310.919 152.813 310.882 152.717 310.882 152.6V145.08C310.882 144.963 310.919 144.867 310.993 144.792C311.068 144.717 311.164 144.68 311.282 144.68H316.626C316.732 144.68 316.823 144.717 316.898 144.792C316.983 144.867 317.026 144.963 317.026 145.08V146.376C317.026 146.493 316.983 146.589 316.898 146.664C316.823 146.739 316.732 146.776 316.626 146.776H313.57V152.6C313.57 152.717 313.527 152.813 313.442 152.888C313.367 152.963 313.276 153 313.17 153H311.282ZM322.161 153.16C321.265 153.16 320.508 153.016 319.889 152.728C319.281 152.44 318.812 152.029 318.481 151.496C318.161 150.952 317.98 150.307 317.937 149.56C317.927 149.347 317.921 149.107 317.921 148.84C317.921 148.563 317.927 148.323 317.937 148.12C317.98 147.363 318.172 146.717 318.513 146.184C318.855 145.651 319.329 145.24 319.937 144.952C320.556 144.664 321.297 144.52 322.161 144.52C323.036 144.52 323.777 144.664 324.385 144.952C325.004 145.24 325.484 145.651 325.825 146.184C326.167 146.717 326.359 147.363 326.401 148.12C326.412 148.323 326.417 148.563 326.417 148.84C326.417 149.107 326.412 149.347 326.401 149.56C326.359 150.307 326.172 150.952 325.841 151.496C325.521 152.029 325.052 152.44 324.433 152.728C323.825 153.016 323.068 153.16 322.161 153.16ZM322.161 151.208C322.641 151.208 322.988 151.064 323.201 150.776C323.425 150.488 323.553 150.056 323.585 149.48C323.596 149.32 323.601 149.107 323.601 148.84C323.601 148.573 323.596 148.36 323.585 148.2C323.553 147.635 323.425 147.208 323.201 146.92C322.988 146.621 322.641 146.472 322.161 146.472C321.692 146.472 321.345 146.621 321.121 146.92C320.897 147.208 320.775 147.635 320.753 148.2C320.743 148.36 320.737 148.573 320.737 148.84C320.737 149.107 320.743 149.32 320.753 149.48C320.775 150.056 320.897 150.488 321.121 150.776C321.345 151.064 321.692 151.208 322.161 151.208ZM328.391 153C328.274 153 328.178 152.963 328.103 152.888C328.028 152.813 327.991 152.717 327.991 152.6V145.08C327.991 144.963 328.028 144.867 328.103 144.792C328.178 144.717 328.274 144.68 328.391 144.68H332.135C333.404 144.68 334.327 144.893 334.903 145.32C335.49 145.747 335.783 146.323 335.783 147.048C335.783 147.453 335.703 147.784 335.543 148.04C335.383 148.296 335.17 148.509 334.903 148.68C335.255 148.861 335.532 149.112 335.735 149.432C335.938 149.752 336.039 150.12 336.039 150.536C336.039 151.304 335.74 151.907 335.143 152.344C334.546 152.781 333.618 153 332.359 153H328.391ZM330.583 151.288H332.215C332.546 151.288 332.812 151.229 333.015 151.112C333.218 150.984 333.319 150.781 333.319 150.504C333.319 150.227 333.223 150.029 333.031 149.912C332.85 149.784 332.578 149.72 332.215 149.72H330.583V151.288ZM330.583 147.928H332.183C332.514 147.928 332.775 147.864 332.967 147.736C333.17 147.597 333.271 147.395 333.271 147.128C333.271 146.851 333.17 146.659 332.967 146.552C332.775 146.445 332.514 146.392 332.183 146.392H330.583V147.928ZM340.19 153.16C339.614 153.16 339.097 153.053 338.638 152.84C338.19 152.616 337.833 152.317 337.566 151.944C337.299 151.571 337.166 151.149 337.166 150.68C337.166 149.923 337.475 149.325 338.094 148.888C338.713 148.44 339.534 148.136 340.558 147.976L342.558 147.672V147.448C342.558 147.064 342.478 146.771 342.318 146.568C342.158 146.365 341.865 146.264 341.438 146.264C341.139 146.264 340.894 146.323 340.702 146.44C340.521 146.557 340.377 146.717 340.27 146.92C340.174 147.059 340.041 147.128 339.87 147.128H338.078C337.961 147.128 337.87 147.096 337.806 147.032C337.742 146.957 337.715 146.872 337.726 146.776C337.726 146.584 337.795 146.365 337.934 146.12C338.083 145.864 338.307 145.613 338.606 145.368C338.905 145.123 339.289 144.92 339.758 144.76C340.227 144.6 340.793 144.52 341.454 144.52C342.147 144.52 342.739 144.6 343.23 144.76C343.721 144.92 344.115 145.144 344.414 145.432C344.723 145.72 344.953 146.061 345.102 146.456C345.251 146.84 345.326 147.267 345.326 147.736V152.6C345.326 152.717 345.283 152.813 345.198 152.888C345.123 152.963 345.033 153 344.926 153H343.07C342.953 153 342.857 152.963 342.782 152.888C342.707 152.813 342.67 152.717 342.67 152.6V152.04C342.531 152.243 342.345 152.429 342.11 152.6C341.875 152.771 341.598 152.904 341.278 153C340.969 153.107 340.606 153.16 340.19 153.16ZM340.942 151.336C341.251 151.336 341.529 151.272 341.774 151.144C342.03 151.005 342.227 150.797 342.366 150.52C342.515 150.232 342.59 149.875 342.59 149.448V149.224L341.23 149.464C340.729 149.549 340.361 149.683 340.126 149.864C339.902 150.035 339.79 150.237 339.79 150.472C339.79 150.653 339.843 150.808 339.95 150.936C340.057 151.064 340.195 151.165 340.366 151.24C340.537 151.304 340.729 151.336 340.942 151.336ZM352.492 153C352.374 153 352.278 152.963 352.204 152.888C352.129 152.813 352.092 152.717 352.092 152.6V150.328H350.748V150.248C349.617 150.248 348.753 150.003 348.156 149.512C347.558 149.011 347.26 148.333 347.26 147.48C347.26 146.563 347.558 145.869 348.156 145.4C348.753 144.92 349.585 144.68 350.652 144.68H354.444C354.561 144.68 354.657 144.717 354.732 144.792C354.806 144.867 354.844 144.963 354.844 145.08V152.6C354.844 152.717 354.806 152.813 354.732 152.888C354.657 152.963 354.561 153 354.444 153H352.492ZM347.324 153C347.217 153 347.132 152.968 347.068 152.904C347.004 152.84 346.972 152.765 346.972 152.68C346.972 152.648 346.977 152.616 346.988 152.584C347.009 152.541 347.03 152.499 347.052 152.456L348.764 149.64L351.1 150.04L349.612 152.76C349.569 152.824 349.516 152.883 349.452 152.936C349.388 152.979 349.313 153 349.228 153H347.324ZM350.748 148.488H352.14V146.52H350.812C350.417 146.52 350.124 146.595 349.932 146.744C349.75 146.893 349.66 147.139 349.66 147.48C349.66 147.779 349.745 148.024 349.916 148.216C350.097 148.397 350.374 148.488 350.748 148.488ZM364.962 153.16C363.949 153.16 363.079 152.995 362.354 152.664C361.639 152.333 361.079 151.848 360.674 151.208C360.279 150.568 360.061 149.773 360.018 148.824C360.007 148.387 360.002 147.917 360.002 147.416C360.002 146.915 360.007 146.435 360.018 145.976C360.061 145.048 360.285 144.264 360.69 143.624C361.095 142.973 361.661 142.483 362.386 142.152C363.111 141.811 363.97 141.64 364.962 141.64C365.666 141.64 366.317 141.731 366.914 141.912C367.511 142.083 368.034 142.339 368.482 142.68C368.93 143.011 369.277 143.416 369.522 143.896C369.778 144.365 369.911 144.899 369.922 145.496C369.933 145.592 369.901 145.672 369.826 145.736C369.762 145.8 369.682 145.832 369.586 145.832H367.426C367.287 145.832 367.181 145.805 367.106 145.752C367.031 145.688 366.967 145.576 366.914 145.416C366.765 144.851 366.519 144.467 366.178 144.264C365.847 144.051 365.437 143.944 364.946 143.944C364.359 143.944 363.895 144.109 363.554 144.44C363.213 144.76 363.026 145.299 362.994 146.056C362.962 146.931 362.962 147.827 362.994 148.744C363.026 149.501 363.213 150.045 363.554 150.376C363.895 150.696 364.359 150.856 364.946 150.856C365.437 150.856 365.853 150.749 366.194 150.536C366.535 150.323 366.775 149.939 366.914 149.384C366.957 149.224 367.015 149.117 367.09 149.064C367.175 149 367.287 148.968 367.426 148.968H369.586C369.682 148.968 369.762 149 369.826 149.064C369.901 149.128 369.933 149.208 369.922 149.304C369.911 149.901 369.778 150.44 369.522 150.92C369.277 151.389 368.93 151.795 368.482 152.136C368.034 152.467 367.511 152.723 366.914 152.904C366.317 153.075 365.666 153.16 364.962 153.16ZM371.812 153C371.706 153 371.615 152.963 371.54 152.888C371.466 152.813 371.428 152.723 371.428 152.616V145.08C371.428 144.963 371.466 144.867 371.54 144.792C371.615 144.717 371.711 144.68 371.828 144.68H373.716C373.823 144.68 373.914 144.717 373.988 144.792C374.074 144.867 374.116 144.963 374.116 145.08V150.92L373.396 150.568L377.348 144.936C377.402 144.861 377.466 144.803 377.54 144.76C377.615 144.707 377.7 144.68 377.796 144.68H379.508C379.615 144.68 379.706 144.717 379.78 144.792C379.855 144.867 379.892 144.957 379.892 145.064V152.6C379.892 152.717 379.855 152.813 379.78 152.888C379.706 152.963 379.61 153 379.492 153H377.604C377.487 153 377.391 152.963 377.316 152.888C377.242 152.813 377.204 152.717 377.204 152.6V146.936L377.94 147.08L373.956 152.744C373.914 152.819 373.855 152.883 373.78 152.936C373.706 152.979 373.615 153 373.508 153H371.812ZM385.456 153.16C384.666 153.16 383.968 153.016 383.36 152.728C382.752 152.44 382.266 152.024 381.904 151.48C381.552 150.925 381.36 150.264 381.328 149.496C381.317 149.325 381.312 149.112 381.312 148.856C381.312 148.589 381.317 148.371 381.328 148.2C381.36 147.421 381.552 146.76 381.904 146.216C382.256 145.661 382.736 145.24 383.344 144.952C383.962 144.664 384.666 144.52 385.456 144.52C386.192 144.52 386.821 144.627 387.344 144.84C387.866 145.043 388.293 145.299 388.624 145.608C388.954 145.917 389.2 146.237 389.36 146.568C389.53 146.888 389.621 147.171 389.632 147.416C389.642 147.523 389.605 147.619 389.52 147.704C389.434 147.779 389.338 147.816 389.232 147.816H387.2C387.082 147.816 386.992 147.789 386.928 147.736C386.864 147.683 386.805 147.603 386.752 147.496C386.624 147.165 386.458 146.931 386.256 146.792C386.064 146.653 385.813 146.584 385.504 146.584C385.077 146.584 384.746 146.723 384.512 147C384.288 147.277 384.165 147.704 384.144 148.28C384.133 148.707 384.133 149.085 384.144 149.416C384.165 150.003 384.288 150.429 384.512 150.696C384.746 150.963 385.077 151.096 385.504 151.096C385.834 151.096 386.096 151.027 386.288 150.888C386.48 150.749 386.634 150.515 386.752 150.184C386.805 150.077 386.864 149.997 386.928 149.944C386.992 149.891 387.082 149.864 387.2 149.864H389.232C389.338 149.864 389.434 149.907 389.52 149.992C389.605 150.067 389.642 150.157 389.632 150.264C389.621 150.445 389.568 150.659 389.472 150.904C389.376 151.139 389.226 151.389 389.024 151.656C388.821 151.923 388.554 152.173 388.224 152.408C387.904 152.632 387.514 152.813 387.056 152.952C386.597 153.091 386.064 153.16 385.456 153.16ZM393.581 153C393.474 153 393.378 152.963 393.293 152.888C393.218 152.813 393.181 152.717 393.181 152.6V146.776H390.749C390.642 146.776 390.546 146.739 390.461 146.664C390.386 146.589 390.349 146.493 390.349 146.376V145.08C390.349 144.963 390.386 144.867 390.461 144.792C390.546 144.717 390.642 144.68 390.749 144.68H398.269C398.376 144.68 398.466 144.717 398.541 144.792C398.626 144.867 398.669 144.963 398.669 145.08V146.376C398.669 146.493 398.626 146.589 398.541 146.664C398.466 146.739 398.376 146.776 398.269 146.776H395.837V152.6C395.837 152.717 395.8 152.813 395.725 152.888C395.65 152.963 395.554 153 395.437 153H393.581ZM403.675 153.16C402.416 153.16 401.413 152.819 400.667 152.136C399.92 151.453 399.531 150.44 399.499 149.096C399.499 149.021 399.499 148.925 399.499 148.808C399.499 148.691 399.499 148.6 399.499 148.536C399.531 147.693 399.717 146.973 400.059 146.376C400.411 145.768 400.891 145.309 401.499 145C402.117 144.68 402.837 144.52 403.659 144.52C404.597 144.52 405.371 144.707 405.979 145.08C406.597 145.453 407.061 145.96 407.371 146.6C407.68 147.24 407.835 147.971 407.835 148.792V149.176C407.835 149.293 407.792 149.389 407.707 149.464C407.632 149.539 407.541 149.576 407.435 149.576H402.315C402.315 149.587 402.315 149.603 402.315 149.624C402.315 149.645 402.315 149.667 402.315 149.688C402.325 149.997 402.379 150.28 402.475 150.536C402.571 150.792 402.72 150.995 402.923 151.144C403.125 151.293 403.371 151.368 403.659 151.368C403.872 151.368 404.048 151.336 404.187 151.272C404.336 151.197 404.459 151.117 404.555 151.032C404.651 150.936 404.725 150.856 404.779 150.792C404.875 150.685 404.949 150.621 405.003 150.6C405.067 150.568 405.163 150.552 405.291 150.552H407.275C407.381 150.552 407.467 150.584 407.531 150.648C407.605 150.701 407.637 150.781 407.627 150.888C407.616 151.069 407.525 151.288 407.355 151.544C407.184 151.8 406.933 152.056 406.603 152.312C406.283 152.557 405.877 152.76 405.387 152.92C404.896 153.08 404.325 153.16 403.675 153.16ZM402.315 147.992H405.019V147.96C405.019 147.619 404.965 147.32 404.859 147.064C404.763 146.808 404.608 146.611 404.395 146.472C404.192 146.333 403.947 146.264 403.659 146.264C403.371 146.264 403.125 146.333 402.923 146.472C402.731 146.611 402.581 146.808 402.475 147.064C402.368 147.32 402.315 147.619 402.315 147.96V147.992ZM409.655 153C409.569 153 409.495 152.968 409.431 152.904C409.367 152.84 409.335 152.76 409.335 152.664V145C409.335 144.915 409.367 144.84 409.431 144.776C409.495 144.712 409.569 144.68 409.655 144.68H411.495C411.687 144.68 411.841 144.776 411.959 144.968L414.135 148.856L416.327 144.968C416.444 144.776 416.599 144.68 416.791 144.68H418.631C418.727 144.68 418.807 144.712 418.871 144.776C418.935 144.84 418.967 144.915 418.967 145V152.664C418.967 152.76 418.935 152.84 418.871 152.904C418.807 152.968 418.727 153 418.631 153H416.647C416.551 153 416.471 152.968 416.407 152.904C416.343 152.84 416.311 152.76 416.311 152.664V147.448L417.095 147.624L414.935 151.4C414.881 151.496 414.817 151.581 414.743 151.656C414.679 151.72 414.583 151.752 414.455 151.752H413.815C413.708 151.752 413.617 151.72 413.543 151.656C413.468 151.592 413.399 151.507 413.335 151.4L411.239 147.72L411.975 147.56V152.664C411.975 152.76 411.943 152.84 411.879 152.904C411.815 152.968 411.735 153 411.639 153H409.655ZM423.409 153.16C422.833 153.16 422.315 153.053 421.857 152.84C421.409 152.616 421.051 152.317 420.785 151.944C420.518 151.571 420.385 151.149 420.385 150.68C420.385 149.923 420.694 149.325 421.313 148.888C421.931 148.44 422.753 148.136 423.777 147.976L425.777 147.672V147.448C425.777 147.064 425.697 146.771 425.537 146.568C425.377 146.365 425.083 146.264 424.657 146.264C424.358 146.264 424.113 146.323 423.921 146.44C423.739 146.557 423.595 146.717 423.489 146.92C423.393 147.059 423.259 147.128 423.089 147.128H421.297C421.179 147.128 421.089 147.096 421.025 147.032C420.961 146.957 420.934 146.872 420.945 146.776C420.945 146.584 421.014 146.365 421.153 146.12C421.302 145.864 421.526 145.613 421.825 145.368C422.123 145.123 422.507 144.92 422.977 144.76C423.446 144.6 424.011 144.52 424.673 144.52C425.366 144.52 425.958 144.6 426.449 144.76C426.939 144.92 427.334 145.144 427.633 145.432C427.942 145.72 428.171 146.061 428.321 146.456C428.47 146.84 428.545 147.267 428.545 147.736V152.6C428.545 152.717 428.502 152.813 428.417 152.888C428.342 152.963 428.251 153 428.145 153H426.289C426.171 153 426.075 152.963 426.001 152.888C425.926 152.813 425.889 152.717 425.889 152.6V152.04C425.75 152.243 425.563 152.429 425.329 152.6C425.094 152.771 424.817 152.904 424.497 153C424.187 153.107 423.825 153.16 423.409 153.16ZM424.161 151.336C424.47 151.336 424.747 151.272 424.993 151.144C425.249 151.005 425.446 150.797 425.585 150.52C425.734 150.232 425.809 149.875 425.809 149.448V149.224L424.449 149.464C423.947 149.549 423.579 149.683 423.345 149.864C423.121 150.035 423.009 150.237 423.009 150.472C423.009 150.653 423.062 150.808 423.169 150.936C423.275 151.064 423.414 151.165 423.585 151.24C423.755 151.304 423.947 151.336 424.161 151.336ZM434.333 153C434.215 153 434.119 152.963 434.045 152.888C433.97 152.813 433.933 152.717 433.933 152.6V142.2C433.933 142.083 433.97 141.987 434.045 141.912C434.119 141.837 434.215 141.8 434.333 141.8H436.397C436.514 141.8 436.61 141.837 436.685 141.912C436.759 141.987 436.797 142.083 436.797 142.2V146.056H437.773L440.141 142.104C440.194 142.019 440.269 141.949 440.365 141.896C440.461 141.832 440.583 141.8 440.733 141.8H443.037C443.143 141.8 443.229 141.837 443.293 141.912C443.357 141.976 443.389 142.051 443.389 142.136C443.389 142.2 443.367 142.264 443.325 142.328L440.349 147.192L443.613 152.456C443.645 152.499 443.661 152.557 443.661 152.632C443.661 152.739 443.623 152.829 443.549 152.904C443.485 152.968 443.399 153 443.293 153H440.925C440.754 153 440.626 152.963 440.541 152.888C440.466 152.813 440.407 152.749 440.365 152.696L437.885 148.616H436.797V152.6C436.797 152.717 436.759 152.813 436.685 152.888C436.61 152.963 436.514 153 436.397 153H434.333ZM447.471 153.16C446.895 153.16 446.378 153.053 445.919 152.84C445.471 152.616 445.114 152.317 444.847 151.944C444.581 151.571 444.447 151.149 444.447 150.68C444.447 149.923 444.757 149.325 445.375 148.888C445.994 148.44 446.815 148.136 447.839 147.976L449.839 147.672V147.448C449.839 147.064 449.759 146.771 449.599 146.568C449.439 146.365 449.146 146.264 448.719 146.264C448.421 146.264 448.175 146.323 447.983 146.44C447.802 146.557 447.658 146.717 447.551 146.92C447.455 147.059 447.322 147.128 447.151 147.128H445.359C445.242 147.128 445.151 147.096 445.087 147.032C445.023 146.957 444.997 146.872 445.007 146.776C445.007 146.584 445.077 146.365 445.215 146.12C445.365 145.864 445.589 145.613 445.887 145.368C446.186 145.123 446.57 144.92 447.039 144.76C447.509 144.6 448.074 144.52 448.735 144.52C449.429 144.52 450.021 144.6 450.511 144.76C451.002 144.92 451.397 145.144 451.695 145.432C452.005 145.72 452.234 146.061 452.383 146.456C452.533 146.84 452.607 147.267 452.607 147.736V152.6C452.607 152.717 452.565 152.813 452.479 152.888C452.405 152.963 452.314 153 452.207 153H450.351C450.234 153 450.138 152.963 450.063 152.888C449.989 152.813 449.951 152.717 449.951 152.6V152.04C449.813 152.243 449.626 152.429 449.391 152.6C449.157 152.771 448.879 152.904 448.559 153C448.25 153.107 447.887 153.16 447.471 153.16ZM448.223 151.336C448.533 151.336 448.81 151.272 449.055 151.144C449.311 151.005 449.509 150.797 449.647 150.52C449.797 150.232 449.871 149.875 449.871 149.448V149.224L448.511 149.464C448.01 149.549 447.642 149.683 447.407 149.864C447.183 150.035 447.071 150.237 447.071 150.472C447.071 150.653 447.125 150.808 447.231 150.936C447.338 151.064 447.477 151.165 447.647 151.24C447.818 151.304 448.01 151.336 448.223 151.336ZM459.693 153C459.575 153 459.479 152.963 459.405 152.888C459.33 152.813 459.293 152.717 459.293 152.6V150.168C459.047 150.36 458.738 150.509 458.365 150.616C457.991 150.712 457.57 150.76 457.101 150.76C456.109 150.76 455.341 150.504 454.797 149.992C454.263 149.48 453.997 148.659 453.997 147.528V145.08C453.997 144.963 454.034 144.867 454.109 144.792C454.183 144.717 454.279 144.68 454.397 144.68H456.349C456.466 144.68 456.562 144.717 456.637 144.792C456.711 144.867 456.749 144.963 456.749 145.08V147.4C456.749 147.773 456.839 148.04 457.021 148.2C457.202 148.349 457.506 148.424 457.933 148.424C458.327 148.424 458.653 148.365 458.909 148.248C459.165 148.12 459.293 147.928 459.293 147.672V145.08C459.293 144.963 459.33 144.867 459.405 144.792C459.479 144.717 459.575 144.68 459.693 144.68H461.741C461.858 144.68 461.954 144.717 462.029 144.792C462.103 144.867 462.141 144.963 462.141 145.08V152.6C462.141 152.717 462.103 152.813 462.029 152.888C461.954 152.963 461.858 153 461.741 153H459.693ZM467.94 153.16C466.682 153.16 465.679 152.819 464.932 152.136C464.186 151.453 463.796 150.44 463.764 149.096C463.764 149.021 463.764 148.925 463.764 148.808C463.764 148.691 463.764 148.6 463.764 148.536C463.796 147.693 463.983 146.973 464.324 146.376C464.676 145.768 465.156 145.309 465.764 145C466.383 144.68 467.103 144.52 467.924 144.52C468.863 144.52 469.636 144.707 470.244 145.08C470.863 145.453 471.327 145.96 471.636 146.6C471.946 147.24 472.1 147.971 472.1 148.792V149.176C472.1 149.293 472.058 149.389 471.972 149.464C471.898 149.539 471.807 149.576 471.7 149.576H466.58C466.58 149.587 466.58 149.603 466.58 149.624C466.58 149.645 466.58 149.667 466.58 149.688C466.591 149.997 466.644 150.28 466.74 150.536C466.836 150.792 466.986 150.995 467.188 151.144C467.391 151.293 467.636 151.368 467.924 151.368C468.138 151.368 468.314 151.336 468.452 151.272C468.602 151.197 468.724 151.117 468.82 151.032C468.916 150.936 468.991 150.856 469.044 150.792C469.14 150.685 469.215 150.621 469.268 150.6C469.332 150.568 469.428 150.552 469.556 150.552H471.54C471.647 150.552 471.732 150.584 471.796 150.648C471.871 150.701 471.903 150.781 471.892 150.888C471.882 151.069 471.791 151.288 471.62 151.544C471.45 151.8 471.199 152.056 470.868 152.312C470.548 152.557 470.143 152.76 469.652 152.92C469.162 153.08 468.591 153.16 467.94 153.16ZM466.58 147.992H469.284V147.96C469.284 147.619 469.231 147.32 469.124 147.064C469.028 146.808 468.874 146.611 468.66 146.472C468.458 146.333 468.212 146.264 467.924 146.264C467.636 146.264 467.391 146.333 467.188 146.472C466.996 146.611 466.847 146.808 466.74 147.064C466.634 147.32 466.58 147.619 466.58 147.96V147.992ZM477.424 153.16C476.635 153.16 475.936 153.016 475.328 152.728C474.72 152.44 474.235 152.024 473.872 151.48C473.52 150.925 473.328 150.264 473.296 149.496C473.286 149.325 473.28 149.112 473.28 148.856C473.28 148.589 473.286 148.371 473.296 148.2C473.328 147.421 473.52 146.76 473.872 146.216C474.224 145.661 474.704 145.24 475.312 144.952C475.931 144.664 476.635 144.52 477.424 144.52C478.16 144.52 478.79 144.627 479.312 144.84C479.835 145.043 480.262 145.299 480.592 145.608C480.923 145.917 481.168 146.237 481.328 146.568C481.499 146.888 481.59 147.171 481.6 147.416C481.611 147.523 481.574 147.619 481.488 147.704C481.403 147.779 481.307 147.816 481.2 147.816H479.168C479.051 147.816 478.96 147.789 478.896 147.736C478.832 147.683 478.774 147.603 478.72 147.496C478.592 147.165 478.427 146.931 478.224 146.792C478.032 146.653 477.782 146.584 477.472 146.584C477.046 146.584 476.715 146.723 476.48 147C476.256 147.277 476.134 147.704 476.112 148.28C476.102 148.707 476.102 149.085 476.112 149.416C476.134 150.003 476.256 150.429 476.48 150.696C476.715 150.963 477.046 151.096 477.472 151.096C477.803 151.096 478.064 151.027 478.256 150.888C478.448 150.749 478.603 150.515 478.72 150.184C478.774 150.077 478.832 149.997 478.896 149.944C478.96 149.891 479.051 149.864 479.168 149.864H481.2C481.307 149.864 481.403 149.907 481.488 149.992C481.574 150.067 481.611 150.157 481.6 150.264C481.59 150.445 481.536 150.659 481.44 150.904C481.344 151.139 481.195 151.389 480.992 151.656C480.79 151.923 480.523 152.173 480.192 152.408C479.872 152.632 479.483 152.813 479.024 152.952C478.566 153.091 478.032 153.16 477.424 153.16ZM485.55 153C485.443 153 485.347 152.963 485.262 152.888C485.187 152.813 485.15 152.717 485.15 152.6V146.776H482.718C482.611 146.776 482.515 146.739 482.43 146.664C482.355 146.589 482.318 146.493 482.318 146.376V145.08C482.318 144.963 482.355 144.867 482.43 144.792C482.515 144.717 482.611 144.68 482.718 144.68H490.238C490.344 144.68 490.435 144.717 490.51 144.792C490.595 144.867 490.638 144.963 490.638 145.08V146.376C490.638 146.493 490.595 146.589 490.51 146.664C490.435 146.739 490.344 146.776 490.238 146.776H487.806V152.6C487.806 152.717 487.768 152.813 487.694 152.888C487.619 152.963 487.523 153 487.406 153H485.55ZM492.203 153C492.086 153 491.99 152.963 491.915 152.888C491.841 152.813 491.803 152.717 491.803 152.6V145.08C491.803 144.963 491.841 144.867 491.915 144.792C491.99 144.717 492.086 144.68 492.203 144.68H495.947C497.217 144.68 498.139 144.893 498.715 145.32C499.302 145.747 499.595 146.323 499.595 147.048C499.595 147.453 499.515 147.784 499.355 148.04C499.195 148.296 498.982 148.509 498.715 148.68C499.067 148.861 499.345 149.112 499.547 149.432C499.75 149.752 499.851 150.12 499.851 150.536C499.851 151.304 499.553 151.907 498.955 152.344C498.358 152.781 497.43 153 496.171 153H492.203ZM494.395 151.288H496.027C496.358 151.288 496.625 151.229 496.827 151.112C497.03 150.984 497.131 150.781 497.131 150.504C497.131 150.227 497.035 150.029 496.843 149.912C496.662 149.784 496.39 149.72 496.027 149.72H494.395V151.288ZM494.395 147.928H495.995C496.326 147.928 496.587 147.864 496.779 147.736C496.982 147.597 497.083 147.395 497.083 147.128C497.083 146.851 496.982 146.659 496.779 146.552C496.587 146.445 496.326 146.392 495.995 146.392H494.395V147.928ZM504.003 153.16C503.427 153.16 502.909 153.053 502.451 152.84C502.003 152.616 501.645 152.317 501.379 151.944C501.112 151.571 500.979 151.149 500.979 150.68C500.979 149.923 501.288 149.325 501.907 148.888C502.525 148.44 503.347 148.136 504.371 147.976L506.371 147.672V147.448C506.371 147.064 506.291 146.771 506.131 146.568C505.971 146.365 505.677 146.264 505.251 146.264C504.952 146.264 504.707 146.323 504.515 146.44C504.333 146.557 504.189 146.717 504.083 146.92C503.987 147.059 503.853 147.128 503.683 147.128H501.891C501.773 147.128 501.683 147.096 501.618 147.032C501.555 146.957 501.528 146.872 501.539 146.776C501.539 146.584 501.608 146.365 501.747 146.12C501.896 145.864 502.12 145.613 502.419 145.368C502.717 145.123 503.101 144.92 503.571 144.76C504.04 144.6 504.605 144.52 505.266 144.52C505.96 144.52 506.552 144.6 507.043 144.76C507.533 144.92 507.928 145.144 508.227 145.432C508.536 145.72 508.765 146.061 508.915 146.456C509.064 146.84 509.139 147.267 509.139 147.736V152.6C509.139 152.717 509.096 152.813 509.01 152.888C508.936 152.963 508.845 153 508.739 153H506.883C506.765 153 506.669 152.963 506.595 152.888C506.52 152.813 506.483 152.717 506.483 152.6V152.04C506.344 152.243 506.157 152.429 505.923 152.6C505.688 152.771 505.411 152.904 505.091 153C504.781 153.107 504.419 153.16 504.003 153.16ZM504.755 151.336C505.064 151.336 505.341 151.272 505.587 151.144C505.843 151.005 506.04 150.797 506.179 150.52C506.328 150.232 506.403 149.875 506.403 149.448V149.224L505.043 149.464C504.541 149.549 504.173 149.683 503.939 149.864C503.715 150.035 503.603 150.237 503.603 150.472C503.603 150.653 503.656 150.808 503.763 150.936C503.869 151.064 504.008 151.165 504.179 151.24C504.349 151.304 504.541 151.336 504.755 151.336Z" fill="#3870FF"/>
<path d="M196.594 32.352C179.058 32.352 165.234 38.752 156.402 50.272L175.474 67.296C180.722 60.64 186.994 56.8 195.058 56.8C203.25 56.8 209.266 61.024 212.21 68.064H184.434V89.824H212.338C209.522 97.248 203.506 101.6 195.058 101.6C186.994 101.6 180.722 97.76 175.474 91.104L156.402 108.128C165.234 119.648 179.058 126.048 196.594 126.048C224.754 126.048 244.594 106.72 244.594 79.2C244.594 51.68 224.754 32.352 196.594 32.352ZM330.724 34.4H248.548V57.824H274.788V124H304.484V57.824H330.724V34.4ZM384.492 126.048C402.028 126.048 415.852 119.648 424.684 108.128L405.612 91.104C400.364 97.76 394.092 101.6 386.028 101.6C373.484 101.6 365.036 92.896 365.036 79.2C365.036 65.504 373.484 56.8 386.028 56.8C394.092 56.8 400.364 60.64 405.612 67.296L424.684 50.272C415.852 38.752 402.028 32.352 384.492 32.352C355.692 32.352 334.572 51.68 334.572 79.2C334.572 106.72 355.692 126.048 384.492 126.048ZM523.027 34.4H491.539L472.467 67.808H463.251V34.4H433.043V124H463.251V91.616H471.699L488.851 124H522.899L496.403 77.92L523.027 34.4Z" fill="#0D51FF"/>
<path d="M122.844 20.8904C118.635 21.4591 111.896 23.4497 106.521 25.6962C104.9 26.3786 103.422 26.9474 103.223 26.9474C103.024 26.9474 102.256 26.663 101.488 26.3218C98.6728 25.0706 93.4405 23.4781 89.431 22.6535C85.7912 21.8857 84.5684 21.7719 79.0233 21.6298C74.0185 21.516 72.028 21.5729 69.099 21.971C43.5348 25.4118 23.0322 43.7248 16.6056 68.8056C13.9894 79.0996 14.4728 93.2324 17.743 102.673L18.3118 104.294L16.7478 107.223C9.49649 120.673 7.64813 131.678 11.4302 138.787C13.2501 142.228 17.6008 145.413 21.8947 146.522C27.5251 147.944 39.0134 145.982 47.8855 142.029L51.1273 140.607L52.4353 141.119C56.5586 142.74 62.2459 144.475 65.7151 145.129C68.8715 145.726 70.8052 145.897 75.3835 146.01C83.8575 146.238 89.2604 145.47 96.8245 142.968C115.82 136.74 130.465 121.925 136.607 102.702C138.683 96.2751 139.479 90.9291 139.479 83.6778C139.479 76.9953 138.626 71.1374 136.863 65.6208L136.18 63.488L138.37 59.2226C141.754 52.6254 143.801 47.0234 144.597 41.9333C145.138 38.6063 144.853 33.5446 143.972 31.1559C142.038 25.9237 137.801 22.3122 132.228 21.1179C130.379 20.7198 124.976 20.6061 122.844 20.8904ZM131.744 31.8953C133.991 33.0612 134.929 35.7626 134.417 39.4593C134.019 42.1892 132.967 45.7438 131.659 48.9286L130.607 51.431L128.901 48.9286C125.46 43.8954 120.597 38.5494 116.531 35.3645C115.536 34.5967 114.739 33.8858 114.739 33.7721C114.739 33.573 117.327 32.7484 120.711 31.9237C124.521 30.9569 129.896 30.9569 131.744 31.8953ZM86.0187 32.6062C93.9524 33.9996 100.862 36.9001 107.63 41.6774C111.071 44.0945 116.901 49.9239 119.289 53.3078C121.28 56.123 124.408 61.5259 124.408 62.1515C124.408 62.3506 123.356 63.9999 122.076 65.8483C114.938 76.0853 107.772 84.5309 98.6444 93.4884C87.5827 104.323 77.7437 112.399 66.6535 119.707C61.6487 123.034 53.3453 128.01 51.8951 128.55C51.2126 128.806 50.8713 128.693 48.7386 127.271C36.6532 119.394 28.691 107.252 25.9611 92.6353C25.1365 88.2276 25.0796 80.2655 25.8474 75.7157C29.7432 52.2841 48.2268 34.7674 71.8289 32.0943C75.3266 31.6962 82.2082 31.9522 86.0187 32.6062ZM129.014 79.7821C130.237 94.313 125.005 109.015 114.739 119.764C102.142 132.958 83.9144 138.446 65.8289 134.522C63.8952 134.095 63.753 134.039 64.2649 133.669C64.5777 133.441 66.881 131.963 69.3834 130.342C89.886 117.233 109.536 99.3178 124.777 79.8105C126.683 77.365 128.332 75.4597 128.446 75.545C128.559 75.6588 128.815 77.5356 129.014 79.7821ZM28.8048 123.204C31.2503 126.247 34.2077 129.233 37.0797 131.593C38.5015 132.759 39.6674 133.783 39.6674 133.896C39.6674 133.982 38.5584 134.408 37.165 134.806C28.9185 137.309 22.5203 137.024 20.7857 134.124C19.1933 131.422 19.9611 125.422 22.7478 118.711L23.8 116.209L25.5061 118.711C26.4445 120.105 27.9232 122.095 28.8048 123.204Z" fill="#FF3838"/>
<path d="M44.8999 53.7059C43.0515 54.5875 39.8382 58.9951 37.3642 63.9146C33.6675 71.2796 31.9898 80.237 32.8144 87.9433C33.5253 94.4552 34.35 96.6448 36.5396 97.7538C37.9614 98.4932 39.7245 98.4647 41.2885 97.7254C43.6771 96.5595 44.4733 94.4552 43.7624 91.185C43.1368 88.2845 42.9093 81.9148 43.3359 78.9858C44.1605 73.4408 46.5207 67.7819 49.8194 63.4312C51.5824 61.0994 52.4355 59.5354 52.4639 58.5117C52.4639 57.488 51.8099 55.8671 50.9568 54.9003C49.3359 53.0519 47.061 52.5969 44.8999 53.7059Z" fill="#FF3838"/>
<path d="M118.437 16.8673C114.229 17.4361 107.489 19.4266 102.115 21.6731C100.494 22.3556 99.0154 22.9243 98.8164 22.9243C98.6173 22.9243 97.8495 22.6399 97.0818 22.2987C94.2666 21.0475 89.0343 19.4551 85.0248 18.6304C81.3849 17.8626 80.1622 17.7489 74.6171 17.6067C69.6123 17.4929 67.6217 17.5498 64.6928 17.9479C39.1285 21.3887 18.6259 39.7017 12.1993 64.7826C9.58318 75.0765 10.0666 89.2094 13.3368 98.6502L13.9055 100.271L12.3415 103.2C5.09024 116.65 3.24188 127.655 7.02391 134.764C8.84384 138.205 13.1946 141.39 17.4885 142.499C23.1189 143.921 34.6072 141.959 43.4793 138.006L46.721 136.584L48.0291 137.096C52.1524 138.717 57.8396 140.452 61.3089 141.106C64.4653 141.703 66.399 141.873 70.9772 141.987C79.4512 142.215 84.8541 141.447 92.4182 138.945C111.414 132.717 126.058 117.902 132.201 98.6787C134.276 92.2521 135.073 86.906 135.073 79.6548C135.073 72.9722 134.22 67.1143 132.457 61.5977L131.774 59.465L133.964 55.1995C137.348 48.6023 139.395 43.0003 140.191 37.9102C140.732 34.5832 140.447 29.5215 139.566 27.1329C137.632 21.9006 133.395 18.2892 127.821 17.0948C125.973 16.6967 120.57 16.583 118.437 16.8673ZM127.338 27.8722C129.584 29.0381 130.523 31.7396 130.011 35.4363C129.613 38.1662 128.561 41.7207 127.253 44.9056L126.201 47.408L124.494 44.9056C121.054 39.8723 116.191 34.5263 112.125 31.3414C111.129 30.5737 110.333 29.8628 110.333 29.749C110.333 29.55 112.921 28.7253 116.305 27.9006C120.115 26.9338 125.49 26.9338 127.338 27.8722ZM81.6124 28.5831C89.5461 29.9765 96.4562 32.877 103.224 37.6543C106.665 40.0714 112.494 45.9008 114.883 49.2848C116.873 52.1 120.001 57.5029 120.001 58.1285C120.001 58.3275 118.949 59.9768 117.67 61.8252C110.532 72.0623 103.366 80.5079 94.2381 89.4653C83.1764 100.3 73.3374 108.375 62.2473 115.684C57.2425 119.011 48.9391 123.987 47.4888 124.527C46.8063 124.783 46.4651 124.669 44.3324 123.248C32.2469 115.371 24.2848 103.228 21.5549 88.6122C20.7302 84.2046 20.6734 76.2424 21.4411 71.6926C25.3369 48.2611 43.8205 30.7443 67.4227 28.0713C70.9203 27.6732 77.8019 27.9291 81.6124 28.5831ZM124.608 75.759C125.831 90.29 120.599 104.992 110.333 115.74C97.7358 128.935 79.5081 134.423 61.4226 130.499C59.4889 130.072 59.3468 130.015 59.8586 129.646C60.1714 129.418 62.4748 127.94 64.9772 126.319C85.4797 113.21 105.129 95.2947 120.371 75.7874C122.276 73.3419 123.926 71.4367 124.039 71.522C124.153 71.6357 124.409 73.5125 124.608 75.759ZM24.3985 119.181C26.844 122.224 29.8014 125.21 32.6735 127.57C34.0953 128.736 35.2612 129.76 35.2612 129.873C35.2612 129.959 34.1522 130.385 32.7588 130.783C24.5123 133.286 18.1141 133.001 16.3795 130.101C14.787 127.399 15.5548 121.399 18.3416 114.688L19.3937 112.186L21.0999 114.688C22.0383 116.082 23.517 118.072 24.3985 119.181Z" fill="#0D51FF"/>
<path d="M40.4936 49.6829C38.6453 50.5644 35.432 54.972 32.958 59.8915C29.2613 67.2565 27.5835 76.214 28.4082 83.9202C29.1191 90.4321 29.9437 92.6217 32.1333 93.7307C33.5552 94.4701 35.3182 94.4417 36.8822 93.7023C39.2709 92.5364 40.0671 90.4321 39.3562 87.162C38.7306 84.2614 38.5031 77.8917 38.9296 74.9628C39.7543 69.4177 42.1145 63.7589 45.4131 59.4081C47.1762 57.0763 48.0292 55.5123 48.0577 54.4886C48.0577 53.4649 47.4037 51.844 46.5506 50.8772C44.9297 49.0288 42.6548 48.5739 40.4936 49.6829Z" fill="#0D51FF"/>
</svg>
